<?xml version="1.0" encoding="UTF-8" standalone="no"?>
<!-- Created with Inkscape (http://www.inkscape.org/) -->

<svg
   width="1200"
   height="628"
   viewBox="0 0 317.5 166.15833"
   version="1.1"
   id="svg5980"
   inkscape:version="1.2.1 (9c6d41e410, 2022-07-14)"
   sodipodi:docname="social.svg"
   xmlns:inkscape="http://www.inkscape.org/namespaces/inkscape"
   xmlns:sodipodi="http://sodipodi.sourceforge.net/DTD/sodipodi-0.dtd"
   xmlns="http://www.w3.org/2000/svg"
   xmlns:svg="http://www.w3.org/2000/svg">
  <sodipodi:namedview
     id="namedview5982"
     pagecolor="#ffffff"
     bordercolor="#000000"
     borderopacity="0.25"
     inkscape:showpageshadow="2"
     inkscape:pageopacity="0.0"
     inkscape:pagecheckerboard="0"
     inkscape:deskcolor="#d1d1d1"
     inkscape:document-units="mm"
     showgrid="false"
     inkscape:zoom="0.75455247"
     inkscape:cx="582.46446"
     inkscape:cy="272.34687"
     inkscape:window-width="1920"
     inkscape:window-height="1012"
     inkscape:window-x="0"
     inkscape:window-y="32"
     inkscape:window-maximized="1"
     inkscape:current-layer="layer1" />
  <defs
     id="defs5977">
    <linearGradient
       x1="0"
       y1="0"
       x2="1"
       y2="0"
       gradientUnits="userSpaceOnUse"
       gradientTransform="matrix(21.37623,37.024715,37.024715,-21.37623,112.88927,90.677978)"
       spreadMethod="pad"
       id="linearGradient1706">
      <stop
         style="stop-opacity:1;stop-color:#113e74"
         offset="0"
         id="stop1700" />
      <stop
         style="stop-opacity:1;stop-color:#2270c1"
         offset="0.89544754"
         id="stop1702" />
      <stop
         style="stop-opacity:1;stop-color:#2270c1"
         offset="1"
         id="stop1704" />
    </linearGradient>
    <linearGradient
       x1="0"
       y1="0"
       x2="1"
       y2="0"
       gradientUnits="userSpaceOnUse"
       gradientTransform="matrix(17.33464,17.33464,17.33464,-17.33464,150.65956,102.16924)"
       spreadMethod="pad"
       id="linearGradient1728">
      <stop
         style="stop-opacity:1;stop-color:#31ad3d"
         offset="0"
         id="stop1722" />
      <stop
         style="stop-opacity:1;stop-color:#31ad3d"
         offset="0.30840837"
         id="stop1724" />
      <stop
         style="stop-opacity:1;stop-color:#80cc28"
         offset="1"
         id="stop1726" />
    </linearGradient>
    <linearGradient
       x1="0"
       y1="0"
       x2="1"
       y2="0"
       gradientUnits="userSpaceOnUse"
       gradientTransform="matrix(14.764113,14.764113,14.764113,-14.764113,107.19406,67.029121)"
       spreadMethod="pad"
       id="linearGradient1750">
      <stop
         style="stop-opacity:1;stop-color:#31ad3d"
         offset="0"
         id="stop1744" />
      <stop
         style="stop-opacity:1;stop-color:#31ad3d"
         offset="0.30840837"
         id="stop1746" />
      <stop
         style="stop-opacity:1;stop-color:#80cc28"
         offset="1"
         id="stop1748" />
    </linearGradient>
    <linearGradient
       x1="0"
       y1="0"
       x2="1"
       y2="0"
       gradientUnits="userSpaceOnUse"
       gradientTransform="matrix(28.914967,50.082191,50.082191,-28.914967,82.547844,120.10219)"
       spreadMethod="pad"
       id="linearGradient1772">
      <stop
         style="stop-opacity:1;stop-color:#113e74"
         offset="0"
         id="stop1766" />
      <stop
         style="stop-opacity:1;stop-color:#2270c1"
         offset="0.89544754"
         id="stop1768" />
      <stop
         style="stop-opacity:1;stop-color:#2270c1"
         offset="1"
         id="stop1770" />
    </linearGradient>
    <linearGradient
       x1="0"
       y1="0"
       x2="1"
       y2="0"
       gradientUnits="userSpaceOnUse"
       gradientTransform="matrix(50.194958,86.940216,86.940216,-50.194958,72.691658,101.22494)"
       spreadMethod="pad"
       id="linearGradient1794">
      <stop
         style="stop-opacity:1;stop-color:#113e74"
         offset="0"
         id="stop1788" />
      <stop
         style="stop-opacity:1;stop-color:#2270c1"
         offset="0.89544754"
         id="stop1790" />
      <stop
         style="stop-opacity:1;stop-color:#2270c1"
         offset="1"
         id="stop1792" />
    </linearGradient>
    <linearGradient
       x1="0"
       y1="0"
       x2="1"
       y2="0"
       gradientUnits="userSpaceOnUse"
       gradientTransform="matrix(13.393727,13.393727,13.393727,-13.393727,90.147667,139.11928)"
       spreadMethod="pad"
       id="linearGradient1816">
      <stop
         style="stop-opacity:1;stop-color:#31ad3d"
         offset="0"
         id="stop1810" />
      <stop
         style="stop-opacity:1;stop-color:#31ad3d"
         offset="0.30840837"
         id="stop1812" />
      <stop
         style="stop-opacity:1;stop-color:#80cc28"
         offset="1"
         id="stop1814" />
    </linearGradient>
    <clipPath
       clipPathUnits="userSpaceOnUse"
       id="clipPath1826">
      <path
         d="M 0,259.395 H 435.276 V 0 H 0 Z"
         id="path1824" />
    </clipPath>
    <linearGradient
       x1="0"
       y1="0"
       x2="1"
       y2="0"
       gradientUnits="userSpaceOnUse"
       gradientTransform="matrix(37.348831,0,0,-37.348831,310.70911,145.15056)"
       spreadMethod="pad"
       id="linearGradient1858">
      <stop
         style="stop-opacity:1;stop-color:#113e74"
         offset="0"
         id="stop1852" />
      <stop
         style="stop-opacity:1;stop-color:#2270c1"
         offset="0.89544754"
         id="stop1854" />
      <stop
         style="stop-opacity:1;stop-color:#2270c1"
         offset="1"
         id="stop1856" />
    </linearGradient>
    <linearGradient
       x1="0"
       y1="0"
       x2="1"
       y2="0"
       gradientUnits="userSpaceOnUse"
       gradientTransform="matrix(33.863804,0,0,-33.863804,353.38391,138.47607)"
       spreadMethod="pad"
       id="linearGradient1880">
      <stop
         style="stop-opacity:1;stop-color:#113e74"
         offset="0"
         id="stop1874" />
      <stop
         style="stop-opacity:1;stop-color:#2270c1"
         offset="0.89544754"
         id="stop1876" />
      <stop
         style="stop-opacity:1;stop-color:#2270c1"
         offset="1"
         id="stop1878" />
    </linearGradient>
    <clipPath
       clipPathUnits="userSpaceOnUse"
       id="clipPath1890">
      <path
         d="M 0,259.395 H 435.276 V 0 H 0 Z"
         id="path1888" />
    </clipPath>
  </defs>
  <g
     inkscape:label="Camada 1"
     inkscape:groupmode="layer"
     id="layer1">
    <g
       id="g9004"
       transform="translate(0.47027723,-2.0640951)">
      <g
         id="g1688"
         transform="matrix(0.7787177,0,0,-0.7787177,-11.198407,186.14139)">
        <g
           id="g1690">
          <g
             id="g1696">
            <g
               id="g1698">
              <path
                 d="m 104.236,140.996 c -0.12,-0.011 -0.234,-0.043 -0.35,-0.067 v 0 c -0.109,-0.022 -0.221,-0.034 -0.326,-0.067 v 0 c -0.094,-0.029 -0.18,-0.079 -0.271,-0.117 v 0 c -0.113,-0.049 -0.231,-0.089 -0.336,-0.151 v 0 c -0.091,-0.054 -0.17,-0.125 -0.255,-0.187 v 0 c -0.091,-0.066 -0.188,-0.126 -0.271,-0.203 v 0 c -0.084,-0.079 -0.153,-0.174 -0.228,-0.263 v 0 c -0.069,-0.08 -0.144,-0.152 -0.205,-0.24 v 0 c -0.057,-0.084 -0.099,-0.183 -0.148,-0.274 v 0 c -0.06,-0.111 -0.127,-0.217 -0.176,-0.337 v 0 c -0.031,-0.079 -0.047,-0.169 -0.074,-0.252 v 0 c -0.045,-0.146 -0.094,-0.289 -0.121,-0.446 v 0 c -10e-4,-0.011 -0.006,-0.02 -0.007,-0.031 v 0 c -0.018,-0.11 -0.013,-0.223 -0.021,-0.335 v 0 c -0.008,-0.115 -0.03,-0.224 -0.028,-0.345 v 0 l 0.002,-0.074 c 0,0 10e-4,0 0,-0.001 v 0 c 0,0 0.201,-10.312 0.204,-10.379 v 0 c 1.051,-15.038 9.97,-44.394 36.201,-47.86 v 0 c 0.852,-0.112 1.669,0.087 2.312,0.564 v 0 l 4.779,3.545 4.778,3.545 c 0.644,0.477 1.072,1.202 1.211,2.049 v 0 c 4.292,26.109 -21.215,43.159 -35.302,48.526 v 0 c -0.063,0.025 -9.873,3.207 -9.873,3.207 v 0 h -0.002 l -0.07,0.023 c -0.114,0.037 -0.225,0.048 -0.337,0.074 v 0 c -0.11,0.026 -0.216,0.063 -0.328,0.078 v 0 c -0.011,0.001 -0.021,0 -0.031,0.001 v 0 c -0.153,0.019 -0.298,0.014 -0.446,0.014 v 0 c -0.036,-0.001 -0.073,0.001 -0.11,0.003 v 0 c -0.034,0.001 -0.068,0.002 -0.102,0.002 v 0 c -0.023,0 -0.046,0 -0.069,-0.002 m 12.111,-34.472 c -3.053,4.114 -2.192,9.923 1.922,12.975 v 0 c 4.115,3.052 9.924,2.192 12.976,-1.922 v 0 c 3.053,-4.115 2.191,-9.924 -1.923,-12.977 v 0 c -1.661,-1.232 -3.598,-1.826 -5.518,-1.826 v 0 c -2.837,0 -5.637,1.297 -7.457,3.75"
                 style="fill:url(#linearGradient1706);stroke:none"
                 id="path1708" />
            </g>
          </g>
        </g>
      </g>
      <g
         id="g1710"
         transform="matrix(0.7787177,0,0,-0.7787177,-11.198407,186.14139)">
        <g
           id="g1712">
          <g
             id="g1718">
            <g
               id="g1720">
              <path
                 d="m 157.839,94.99 7.961,-1.181 3.261,22.013 c 0.371,2.498 -1.353,4.823 -3.851,5.193 v 0 l -16.725,2.478 c 6.391,-7.571 10.684,-17.15 9.354,-28.503"
                 style="fill:url(#linearGradient1728);stroke:none"
                 id="path1730" />
            </g>
          </g>
        </g>
      </g>
      <g
         id="g1732"
         transform="matrix(0.7787177,0,0,-0.7787177,-11.198407,186.14139)">
        <g
           id="g1734">
          <g
             id="g1740">
            <g
               id="g1742">
              <path
                 d="m 103.624,73.212 c -0.37,-2.496 1.355,-4.822 3.852,-5.192 v 0 l 22.013,-3.262 1.226,8.278 c -11.267,2.126 -19.164,9.153 -24.513,17.568 v 0 z"
                 style="fill:url(#linearGradient1750);stroke:none"
                 id="path1752" />
            </g>
          </g>
        </g>
      </g>
      <g
         id="g1754"
         transform="matrix(0.7787177,0,0,-0.7787177,-11.198407,186.14139)">
        <g
           id="g1756">
          <g
             id="g1762">
            <g
               id="g1764">
              <path
                 d="m 71.805,156.298 c -6.526,-14.546 -0.001,-31.69 14.545,-38.216 v 0 c 2.166,-0.972 4.391,-1.639 6.628,-2.046 v 0 c -1.305,4.007 -2.297,7.939 -3.018,11.63 v 0 c -9.016,4.413 -12.997,15.235 -8.858,24.46 v 0 c 4.225,9.42 15.328,13.645 24.747,9.42 v 0 c 5.681,-2.549 9.446,-7.602 10.627,-13.274 v 0 c 3.391,-1.759 6.953,-3.864 10.507,-6.311 v 0 c 1.025,11.909 -5.454,23.718 -16.963,28.881 v 0 c -3.832,1.719 -7.844,2.533 -11.793,2.533 v 0 c -11.048,0 -21.615,-6.362 -26.422,-17.077"
                 style="fill:url(#linearGradient1772);stroke:none"
                 id="path1774" />
            </g>
          </g>
        </g>
      </g>
      <g
         id="g1776"
         transform="matrix(0.7787177,0,0,-0.7787177,-11.198407,186.14139)">
        <g
           id="g1778">
          <g
             id="g1784">
            <g
               id="g1786">
              <path
                 d="M 52.423,164.992 C 41.096,139.741 52.422,109.981 77.674,98.652 v 0 c 7.46,-3.347 15.31,-4.701 22.966,-4.315 v 0 c -2.15,3.696 -3.998,7.529 -5.573,11.379 v 0 c -4.298,0.342 -8.609,1.393 -12.764,3.256 v 0 c -19.56,8.776 -28.335,31.829 -19.56,51.39 v 0 c 8.776,19.561 31.83,28.336 51.39,19.561 v 0 c 16.773,-7.526 25.6,-25.547 22.247,-42.863 v 0 c 3.267,-2.623 6.439,-5.508 9.396,-8.647 v 0 c 8.175,24.187 -3.25,51.168 -27.013,61.829 v 0 c -6.65,2.984 -13.615,4.396 -20.472,4.396 v 0 C 79.113,194.639 60.769,183.593 52.423,164.992"
                 style="fill:url(#linearGradient1794);stroke:none"
                 id="path1796" />
            </g>
          </g>
        </g>
      </g>
      <g
         id="g1798"
         transform="matrix(0.7787177,0,0,-0.7787177,-11.198407,186.14139)">
        <g
           id="g1800">
          <g
             id="g1806">
            <g
               id="g1808">
              <path
                 d="m 89.572,148.326 c -2.141,-4.771 -0.008,-10.374 4.763,-12.515 v 0 c 0.407,-0.183 0.822,-0.323 1.239,-0.444 v 0 c -0.071,3.601 -0.178,9.076 -0.178,9.076 v 0 10e-4 l -0.001,0.087 c -0.003,0.14 0.022,0.268 0.031,0.403 v 0 c 0.01,0.132 0.004,0.264 0.024,0.393 v 0 c 0.002,0.013 0.008,0.024 0.009,0.036 v 0 c 0.032,0.183 0.089,0.351 0.143,0.522 v 0 c 0.03,0.098 0.048,0.203 0.086,0.297 v 0 c 0.057,0.14 0.135,0.264 0.206,0.393 v 0 c 0.058,0.107 0.106,0.222 0.174,0.321 v 0 c 0.07,0.103 0.159,0.187 0.239,0.281 v 0 c 0.088,0.104 0.169,0.217 0.268,0.309 v 0 c 0.097,0.09 0.21,0.159 0.317,0.237 v 0 c 0.099,0.073 0.192,0.158 0.299,0.219 v 0 c 0.123,0.072 0.261,0.12 0.393,0.176 v 0 c 0.107,0.046 0.206,0.103 0.318,0.138 v 0 c 0.121,0.039 0.255,0.053 0.383,0.078 v 0 c 0.135,0.028 0.268,0.066 0.409,0.079 v 0 c 0.107,0.009 0.22,-0.004 0.329,-0.004 v 0 c 0.172,0.001 0.343,0.006 0.522,-0.016 v 0 c 0.004,-0.001 0.009,-0.001 0.015,-0.001 v 0 c 0.007,0.001 0.013,0.001 0.021,0 v 0 c 0.131,-0.017 0.255,-0.062 0.384,-0.091 v 0 c 0.132,-0.03 0.262,-0.044 0.395,-0.086 v 0 l 0.083,-0.028 h 0.001 c 0,0 3.861,-1.253 7.122,-2.311 v 0 c -0.47,3.069 -2.433,5.848 -5.478,7.213 v 0 c -1.259,0.565 -2.576,0.832 -3.872,0.832 v 0 c -3.616,0.001 -7.068,-2.082 -8.644,-5.595"
                 style="fill:url(#linearGradient1816);stroke:none"
                 id="path1818" />
            </g>
          </g>
        </g>
      </g>
      <g
         id="g1820"
         transform="matrix(0.7787177,0,0,-0.7787177,-11.198407,186.14139)">
        <g
           id="g1822"
           clip-path="url(#clipPath1826)">
          <g
             id="g1828"
             transform="translate(191.9543,168.7574)">
            <path
               d="M 0,0 C 0.306,0.042 0.712,0.075 1.216,0.098 1.72,0.12 2.147,0.131 2.499,0.131 2.849,0.131 3.266,0.12 3.748,0.098 4.23,0.075 4.625,0.042 4.932,0 L 27.551,-39.586 V 0 c 0.306,0.042 0.647,0.075 1.02,0.098 0.372,0.022 0.757,0.033 1.151,0.033 0.351,0 0.733,-0.011 1.151,-0.033 C 31.289,0.075 31.651,0.042 31.958,0 v -47.279 c -0.264,-0.043 -0.647,-0.076 -1.151,-0.099 -0.504,-0.021 -0.954,-0.032 -1.349,-0.032 -0.35,0 -0.767,0.011 -1.249,0.032 -0.482,0.023 -0.877,0.056 -1.183,0.099 L 4.406,-8.022 v -39.257 c -0.307,-0.043 -0.648,-0.076 -1.02,-0.099 -0.372,-0.021 -0.756,-0.032 -1.15,-0.032 -0.439,0 -0.855,0.011 -1.25,0.032 -0.394,0.023 -0.723,0.056 -0.986,0.099 z"
               style="fill:#2e2a2b;fill-opacity:1;fill-rule:nonzero;stroke:none"
               id="path1830" />
          </g>
          <g
             id="g1832"
             transform="translate(254.09,141.2046)">
            <path
               d="m 0,0 c 0,1.358 -0.175,2.696 -0.526,4.012 -0.351,1.314 -0.898,2.466 -1.644,3.452 -0.746,0.986 -1.71,1.785 -2.893,2.4 -1.184,0.614 -2.609,0.92 -4.275,0.92 -3.068,0 -5.456,-0.943 -7.166,-2.827 C -18.215,6.071 -19.245,3.42 -19.595,0 Z m -19.727,-3.616 c 0,-4.472 1.03,-7.76 3.09,-9.863 2.061,-2.105 5.151,-3.157 9.272,-3.157 1.666,0 3.211,0.142 4.636,0.428 1.424,0.284 2.817,0.668 4.176,1.15 0.219,-0.482 0.394,-1.075 0.526,-1.775 0.131,-0.702 0.218,-1.338 0.263,-1.907 -1.272,-0.571 -2.762,-1.008 -4.472,-1.316 -1.71,-0.305 -3.574,-0.46 -5.589,-0.46 -2.893,0 -5.381,0.428 -7.463,1.283 -2.083,0.855 -3.793,2.048 -5.129,3.584 -1.338,1.534 -2.324,3.363 -2.958,5.49 -0.637,2.126 -0.954,4.461 -0.954,7.003 0,2.455 0.296,4.757 0.887,6.904 0.592,2.148 1.49,4.033 2.696,5.655 1.206,1.622 2.751,2.894 4.636,3.815 1.884,0.92 4.143,1.38 6.772,1.38 2.193,0 4.143,-0.373 5.853,-1.118 1.71,-0.746 3.145,-1.787 4.307,-3.123 C 1.983,9.02 2.86,7.419 3.452,5.557 4.044,3.693 4.339,1.666 4.339,-0.525 4.339,-0.92 4.328,-1.425 4.308,-2.038 4.285,-2.652 4.252,-3.179 4.209,-3.616 Z"
               style="fill:#2e2a2b;fill-opacity:1;fill-rule:nonzero;stroke:none"
               id="path1834" />
          </g>
          <g
             id="g1836"
             transform="translate(260.7336,155.0132)">
            <path
               d="M 0,0 C 0.263,0.044 0.602,0.077 1.019,0.099 1.436,0.12 1.862,0.132 2.301,0.132 2.652,0.132 3.079,0.12 3.584,0.099 4.087,0.077 4.471,0.044 4.734,0 L 12.165,-28.537 20.45,0 c 0.351,0.044 0.734,0.077 1.151,0.099 0.416,0.021 0.865,0.033 1.348,0.033 h 1.085 c 0.371,0 0.733,-0.044 1.085,-0.132 L 33.404,-28.144 40.834,0 c 0.264,0.044 0.581,0.077 0.954,0.099 0.372,0.021 0.733,0.033 1.085,0.033 0.35,0 0.745,-0.012 1.184,-0.033 C 44.494,0.077 44.845,0.044 45.108,0 l -9.665,-33.535 c -0.79,-0.131 -1.557,-0.197 -2.302,-0.197 -0.833,0 -1.601,0.066 -2.302,0.197 l -8.087,27.749 -8.483,-27.749 c -0.789,-0.131 -1.557,-0.197 -2.301,-0.197 -0.834,0 -1.601,0.066 -2.301,0.197 z"
               style="fill:#2e2a2b;fill-opacity:1;fill-rule:nonzero;stroke:none"
               id="path1838" />
          </g>
        </g>
      </g>
      <g
         id="g1840"
         transform="matrix(0.7787177,0,0,-0.7787177,-11.198407,186.14139)">
        <g
           id="g1842">
          <g
             id="g1848">
            <g
               id="g1850">
              <path
                 d="m 323.663,167.704 c -2.806,-1.227 -5.162,-2.936 -7.069,-5.128 v 0 c -1.907,-2.192 -3.365,-4.791 -4.372,-7.792 v 0 c -1.01,-3.004 -1.513,-6.258 -1.513,-9.765 v 0 c 0,-3.508 0.481,-6.752 1.446,-9.732 v 0 c 0.964,-2.982 2.421,-5.547 4.373,-7.694 v 0 c 1.95,-2.148 4.372,-3.825 7.266,-5.03 v 0 c 2.893,-1.205 6.268,-1.807 10.127,-1.807 v 0 c 1.796,0 3.955,0.153 6.476,0.46 v 0 c 2.521,0.305 5.074,0.942 7.661,1.907 v 0 23.934 c -1.009,0.175 -2.039,0.307 -3.091,0.394 v 0 c -1.052,0.088 -1.951,0.133 -2.696,0.133 v 0 c -0.789,0 -1.643,-0.045 -2.564,-0.133 v 0 c -0.921,-0.087 -1.972,-0.219 -3.156,-0.394 v 0 -15.781 c -0.658,-0.132 -1.404,-0.197 -2.236,-0.197 v 0 c -3.726,0 -6.532,1.15 -8.416,3.452 v 0 c -1.886,2.3 -2.828,5.797 -2.828,10.488 v 0 c 0,4.735 0.964,8.295 2.894,10.685 v 0 c 1.927,2.389 4.668,3.583 8.219,3.583 v 0 c 0.744,0 1.446,-0.033 2.104,-0.098 v 0 c 0.657,-0.065 1.315,-0.164 1.972,-0.296 v 0 c 0.658,-0.132 1.349,-0.307 2.071,-0.525 v 0 c 0.724,-0.221 1.524,-0.484 2.401,-0.79 v 0 c 0.613,1.183 1.205,2.631 1.775,4.34 v 0 c 0.569,1.709 0.898,3.462 0.987,5.261 v 0 c -2.281,0.964 -4.373,1.599 -6.279,1.907 v 0 c -1.909,0.306 -3.914,0.46 -6.018,0.46 v 0 c -3.55,0 -6.729,-0.615 -9.534,-1.842"
                 style="fill:url(#linearGradient1858);stroke:none"
                 id="path1860" />
            </g>
          </g>
        </g>
      </g>
      <g
         id="g1862"
         transform="matrix(0.7787177,0,0,-0.7787177,-11.198407,186.14139)">
        <g
           id="g1864">
          <g
             id="g1870">
            <g
               id="g1872">
              <path
                 d="m 362.983,154.981 c -2.104,-0.854 -3.868,-2.071 -5.292,-3.65 v 0 c -1.425,-1.577 -2.499,-3.474 -3.222,-5.688 v 0 c -0.724,-2.214 -1.085,-4.658 -1.085,-7.331 v 0 c 0,-2.631 0.361,-5.03 1.085,-7.201 v 0 c 0.723,-2.169 1.797,-4.034 3.222,-5.589 v 0 c 1.424,-1.557 3.188,-2.751 5.292,-3.584 v 0 c 2.105,-0.832 4.537,-1.249 7.3,-1.249 v 0 c 2.805,0 5.26,0.417 7.364,1.249 v 0 c 2.105,0.833 3.868,2.027 5.294,3.584 v 0 c 1.424,1.555 2.498,3.42 3.221,5.589 v 0 c 0.724,2.171 1.085,4.57 1.085,7.201 v 0 c 0,2.673 -0.361,5.117 -1.085,7.331 v 0 c -0.723,2.214 -1.797,4.111 -3.221,5.688 v 0 c -1.426,1.579 -3.189,2.796 -5.294,3.65 v 0 c -2.104,0.855 -4.559,1.282 -7.364,1.282 v 0 c -2.763,0 -5.195,-0.427 -7.3,-1.282 m 3.026,-23.048 c -0.921,1.49 -1.381,3.616 -1.381,6.379 v 0 c 0,2.804 0.46,4.954 1.381,6.444 v 0 c 0.92,1.489 2.344,2.235 4.274,2.235 v 0 c 1.927,0 3.364,-0.746 4.307,-2.235 v 0 c 0.942,-1.49 1.413,-3.64 1.413,-6.444 v 0 c 0,-2.763 -0.471,-4.889 -1.413,-6.379 v 0 c -0.943,-1.49 -2.38,-2.235 -4.307,-2.235 v 0 c -1.93,0 -3.354,0.745 -4.274,2.235"
                 style="fill:url(#linearGradient1880);stroke:none"
                 id="path1882" />
            </g>
          </g>
        </g>
      </g>
      <g
         id="g1884"
         transform="matrix(0.7787177,0,0,-0.7787177,-11.198407,186.14139)">
        <g
           id="g1886"
           clip-path="url(#clipPath1890)">
          <g
             id="g1892"
             transform="translate(192.1003,104.232)">
            <path
               d="m 0,0 c -0.097,-0.1 -0.146,-0.223 -0.146,-0.37 v -1.186 h 2.385 v -14.579 c 0.016,-0.064 0.053,-0.141 0.11,-0.23 0.056,-0.089 0.182,-0.134 0.377,-0.134 H 4.04 v 14.53 c 0,0.114 0.037,0.21 0.109,0.291 0.074,0.081 0.175,0.122 0.305,0.122 h 1.338 c 0.276,0 0.483,0.049 0.621,0.148 0.138,0.099 0.231,0.206 0.28,0.322 0.032,0.065 0.109,0.233 0.231,0.505 0.122,0.271 0.231,0.515 0.328,0.729 H 0.365 C 0.219,0.148 0.097,0.099 0,0"
               style="fill:#2e2a2b;fill-opacity:1;fill-rule:nonzero;stroke:none"
               id="path1894" />
          </g>
          <g
             id="g1896"
             transform="translate(207.2141,89.4371)">
            <path
               d="m 0,0 h -3.578 v 5.768 c 0,0.113 0.041,0.211 0.122,0.292 0.081,0.081 0.179,0.122 0.292,0.122 l 0.706,-0.025 c 0.276,0 0.482,0.048 0.621,0.144 0.137,0.095 0.231,0.208 0.279,0.336 0.033,0.016 0.106,0.088 0.22,0.216 0.113,0.127 0.214,0.267 0.304,0.419 0.089,0.153 0.146,0.289 0.17,0.409 0.025,0.12 -0.02,0.179 -0.134,0.179 h -2.58 v 4.988 c 0,0.114 0.041,0.208 0.122,0.281 0.081,0.073 0.179,0.11 0.292,0.11 h 1.388 c 0.275,0 0.482,0.053 0.62,0.158 0.138,0.106 0.231,0.215 0.28,0.329 0.032,0.016 0.101,0.089 0.207,0.219 0.105,0.13 0.203,0.268 0.292,0.413 0.089,0.147 0.149,0.281 0.182,0.403 0.033,0.121 -0.008,0.182 -0.121,0.182 H -4.77 c -0.13,0 -0.248,-0.045 -0.353,-0.134 -0.106,-0.089 -0.158,-0.206 -0.158,-0.353 v -16.16 h 3.821 c 0.275,0 0.482,0.049 0.621,0.146 0.137,0.097 0.231,0.203 0.279,0.317 0.033,0.015 0.102,0.089 0.207,0.219 0.105,0.129 0.203,0.271 0.292,0.425 0.089,0.155 0.15,0.292 0.183,0.414 C 0.154,-0.062 0.113,0 0,0"
               style="fill:#2e2a2b;fill-opacity:1;fill-rule:nonzero;stroke:none"
               id="path1898" />
          </g>
          <g
             id="g1900"
             transform="translate(213.177,104.4771)">
            <path
               d="M 0,0 H -1.071 C -1.655,0 -2.15,-0.207 -2.555,-0.62 -2.961,-1.034 -3.164,-1.533 -3.164,-2.117 v -6.304 -0.024 -6.303 c 0,-0.585 0.203,-1.083 0.609,-1.497 0.405,-0.414 0.9,-0.621 1.484,-0.621 H 0 c 0.568,0.033 1.05,0.252 1.448,0.657 0.398,0.405 0.596,0.893 0.596,1.461 v 3.991 c -0.211,-0.097 -0.45,-0.207 -0.717,-0.329 -0.268,-0.121 -0.443,-0.198 -0.524,-0.23 -0.114,-0.066 -0.219,-0.167 -0.316,-0.305 -0.097,-0.138 -0.146,-0.345 -0.146,-0.62 v -2.239 c 0,-0.244 -0.09,-0.456 -0.268,-0.633 -0.178,-0.179 -0.389,-0.268 -0.633,-0.268 -0.259,0 -0.474,0.089 -0.645,0.268 -0.17,0.177 -0.255,0.389 -0.255,0.633 v 6.035 0.024 6.036 c 0,0.243 0.085,0.442 0.255,0.596 0.171,0.154 0.386,0.231 0.645,0.231 0.244,0 0.455,-0.077 0.633,-0.231 0.178,-0.154 0.268,-0.353 0.268,-0.596 v -3.723 c 0.227,0.097 0.47,0.207 0.73,0.328 0.259,0.122 0.429,0.199 0.511,0.231 0.113,0.065 0.219,0.166 0.316,0.305 0.098,0.138 0.146,0.344 0.146,0.62 v 2.507 c 0,0.567 -0.198,1.055 -0.596,1.46 C 1.05,-0.252 0.568,-0.032 0,0"
               style="fill:#2e2a2b;fill-opacity:1;fill-rule:nonzero;stroke:none"
               id="path1902" />
          </g>
          <g
             id="g1904"
             transform="translate(223.1066,94.7906)">
            <path
               d="M 0,0 -1.801,8.664 C -1.85,8.908 -1.943,9.123 -2.081,9.31 -2.219,9.496 -2.531,9.59 -3.018,9.59 H -3.796 V -7.058 h 1.703 v 9.297 l 1.837,-8.225 c 0.016,-0.082 0.045,-0.183 0.086,-0.305 0.041,-0.122 0.102,-0.239 0.184,-0.353 0.081,-0.114 0.196,-0.21 0.342,-0.292 0.147,-0.082 0.335,-0.122 0.564,-0.122 H 1.704 V 9.59 H 0 Z"
               style="fill:#2e2a2b;fill-opacity:1;fill-rule:nonzero;stroke:none"
               id="path1906" />
          </g>
          <g
             id="g1908"
             transform="translate(233.3288,90.0211)">
            <path
               d="m 0,0 c 0,-0.26 -0.089,-0.479 -0.268,-0.657 -0.179,-0.179 -0.398,-0.268 -0.657,-0.268 h -0.243 c -0.26,0.016 -0.475,0.11 -0.645,0.279 C -1.984,-0.475 -2.069,-0.26 -2.069,0 v 12.047 c 0,0.26 0.085,0.474 0.256,0.644 0.17,0.171 0.377,0.264 0.62,0.281 h 0.268 c 0.259,0 0.478,-0.09 0.657,-0.268 C -0.089,12.525 0,12.307 0,12.047 Z m -0.341,14.456 h -1.314 c -0.584,0 -1.083,-0.207 -1.497,-0.62 -0.414,-0.414 -0.62,-0.913 -0.62,-1.497 V -0.316 c 0,-0.584 0.206,-1.08 0.62,-1.486 0.414,-0.405 0.913,-0.608 1.497,-0.608 h 1.314 c 0.276,0.016 0.539,0.082 0.791,0.195 0.251,0.113 0.47,0.264 0.657,0.45 0.186,0.187 0.332,0.402 0.438,0.645 0.105,0.243 0.159,0.512 0.159,0.804 v 12.655 c 0,0.567 -0.204,1.055 -0.609,1.46 -0.406,0.405 -0.885,0.625 -1.436,0.657"
               style="fill:#2e2a2b;fill-opacity:1;fill-rule:nonzero;stroke:none"
               id="path1910" />
          </g>
          <g
             id="g1912"
             transform="translate(241.5305,103.8687)">
            <path
               d="m 0,0 c 0,0.146 -0.049,0.268 -0.146,0.365 -0.098,0.098 -0.219,0.147 -0.365,0.147 h -1.193 v -16.648 h 4.089 c 0.276,0 0.483,0.049 0.621,0.147 0.137,0.096 0.239,0.202 0.304,0.316 0.032,0.08 0.109,0.251 0.231,0.511 0.122,0.259 0.223,0.503 0.304,0.73 H 0 Z"
               style="fill:#2e2a2b;fill-opacity:1;fill-rule:nonzero;stroke:none"
               id="path1914" />
          </g>
          <g
             id="g1916"
             transform="translate(251.1687,90.0211)">
            <path
               d="m 0,0 c 0,-0.26 -0.089,-0.479 -0.268,-0.657 -0.179,-0.179 -0.398,-0.268 -0.657,-0.268 h -0.243 c -0.26,0.016 -0.475,0.11 -0.645,0.279 C -1.984,-0.475 -2.069,-0.26 -2.069,0 v 12.047 c 0,0.26 0.085,0.474 0.256,0.644 0.17,0.171 0.377,0.264 0.62,0.281 h 0.268 c 0.259,0 0.478,-0.09 0.657,-0.268 C -0.089,12.525 0,12.307 0,12.047 Z m -0.341,14.456 h -1.314 c -0.584,0 -1.083,-0.207 -1.497,-0.62 -0.414,-0.414 -0.62,-0.913 -0.62,-1.497 V -0.316 c 0,-0.584 0.206,-1.08 0.62,-1.486 0.414,-0.405 0.913,-0.608 1.497,-0.608 h 1.314 c 0.276,0.016 0.539,0.082 0.791,0.195 0.251,0.113 0.47,0.264 0.657,0.45 0.186,0.187 0.332,0.402 0.438,0.645 0.105,0.243 0.159,0.512 0.159,0.804 v 12.655 c 0,0.567 -0.204,1.055 -0.609,1.46 -0.406,0.405 -0.885,0.625 -1.436,0.657"
               style="fill:#2e2a2b;fill-opacity:1;fill-rule:nonzero;stroke:none"
               id="path1918" />
          </g>
          <g
             id="g1920"
             transform="translate(260.7566,104.4771)">
            <path
               d="M 0,0 H -1.071 C -1.655,0 -2.15,-0.207 -2.556,-0.62 -2.961,-1.034 -3.164,-1.533 -3.164,-2.117 v -12.631 c 0,-0.585 0.203,-1.083 0.608,-1.497 0.406,-0.414 0.901,-0.621 1.485,-0.621 H 0 c 0.568,0.033 1.05,0.252 1.448,0.657 0.398,0.405 0.596,0.893 0.596,1.461 v 6.011 c 0,0.324 -0.077,0.555 -0.231,0.694 -0.154,0.138 -0.353,0.206 -0.596,0.206 h -2.142 l 0.584,-1.168 c 0.065,-0.13 0.13,-0.231 0.195,-0.304 0.064,-0.073 0.13,-0.126 0.195,-0.158 0.064,-0.049 0.138,-0.073 0.219,-0.073 h 0.073 v -4.94 c 0,-0.244 -0.09,-0.456 -0.268,-0.633 -0.179,-0.179 -0.389,-0.268 -0.633,-0.268 -0.259,0 -0.474,0.089 -0.645,0.268 -0.17,0.177 -0.255,0.389 -0.255,0.633 v 12.095 c 0,0.243 0.085,0.454 0.255,0.633 0.171,0.178 0.386,0.268 0.645,0.268 0.244,0 0.454,-0.09 0.633,-0.268 0.178,-0.179 0.268,-0.39 0.268,-0.633 v -2.288 c 0.21,0.098 0.45,0.207 0.718,0.329 0.267,0.121 0.441,0.198 0.523,0.231 0.113,0.065 0.219,0.167 0.316,0.304 0.098,0.138 0.146,0.345 0.146,0.621 v 1.071 c 0,0.567 -0.198,1.055 -0.596,1.46 C 1.05,-0.252 0.568,-0.032 0,0"
               style="fill:#2e2a2b;fill-opacity:1;fill-rule:nonzero;stroke:none"
               id="path1922" />
          </g>
          <g
             id="g1924"
             transform="translate(268.1071,104.3804)">
            <path
               d="m 0,0 h -1.022 v -16.282 c 0.016,-0.082 0.052,-0.162 0.109,-0.243 0.057,-0.082 0.183,-0.122 0.377,-0.122 h 1.217 v 15.99 c 0,0.129 -0.049,0.271 -0.146,0.426 C 0.438,-0.078 0.259,0 0,0"
               style="fill:#2e2a2b;fill-opacity:1;fill-rule:nonzero;stroke:none"
               id="path1926" />
          </g>
          <g
             id="g1928"
             transform="translate(277.0139,103.4791)">
            <path
               d="m 0,0 c -0.033,0.228 -0.102,0.435 -0.207,0.621 -0.105,0.187 -0.345,0.28 -0.718,0.28 h -0.9 l -2.531,-16.647 h 1.874 l 1.509,11.487 1.484,-11.487 h 1.874 z"
               style="fill:#2e2a2b;fill-opacity:1;fill-rule:nonzero;stroke:none"
               id="path1930" />
          </g>
          <g
             id="g1932"
             transform="translate(192.1003,104.232)">
            <path
               d="m 0,0 c -0.097,-0.1 -0.146,-0.223 -0.146,-0.37 v -1.186 h 2.385 v -14.579 c 0.016,-0.064 0.053,-0.141 0.11,-0.23 0.056,-0.089 0.182,-0.134 0.377,-0.134 H 4.04 v 14.53 c 0,0.114 0.037,0.21 0.109,0.291 0.074,0.081 0.175,0.122 0.305,0.122 h 1.338 c 0.276,0 0.483,0.049 0.621,0.148 0.138,0.099 0.231,0.206 0.28,0.322 0.032,0.065 0.109,0.233 0.231,0.505 0.122,0.271 0.231,0.515 0.328,0.729 H 0.365 C 0.219,0.148 0.097,0.099 0,0"
               style="fill:#4f4c4d;fill-opacity:1;fill-rule:nonzero;stroke:none"
               id="path1934" />
          </g>
          <g
             id="g1936"
             transform="translate(207.2141,89.4371)">
            <path
               d="m 0,0 h -3.578 v 5.768 c 0,0.113 0.041,0.211 0.122,0.292 0.081,0.081 0.179,0.122 0.292,0.122 l 0.706,-0.025 c 0.276,0 0.482,0.048 0.621,0.144 0.137,0.095 0.231,0.208 0.279,0.336 0.033,0.016 0.106,0.088 0.22,0.216 0.113,0.127 0.214,0.267 0.304,0.419 0.089,0.153 0.146,0.289 0.17,0.409 0.025,0.12 -0.02,0.179 -0.134,0.179 h -2.58 v 4.988 c 0,0.114 0.041,0.208 0.122,0.281 0.081,0.073 0.179,0.11 0.292,0.11 h 1.388 c 0.275,0 0.482,0.053 0.62,0.158 0.138,0.106 0.231,0.215 0.28,0.329 0.032,0.016 0.101,0.089 0.207,0.219 0.105,0.13 0.203,0.268 0.292,0.413 0.089,0.147 0.149,0.281 0.182,0.403 0.033,0.121 -0.008,0.182 -0.121,0.182 H -4.77 c -0.13,0 -0.248,-0.045 -0.353,-0.134 -0.106,-0.089 -0.158,-0.206 -0.158,-0.353 v -16.16 h 3.821 c 0.275,0 0.482,0.049 0.621,0.146 0.137,0.097 0.231,0.203 0.279,0.317 0.033,0.015 0.102,0.089 0.207,0.219 0.105,0.129 0.203,0.271 0.292,0.425 0.089,0.155 0.15,0.292 0.183,0.414 C 0.154,-0.062 0.113,0 0,0"
               style="fill:#4f4c4d;fill-opacity:1;fill-rule:nonzero;stroke:none"
               id="path1938" />
          </g>
          <g
             id="g1940"
             transform="translate(213.177,104.4771)">
            <path
               d="M 0,0 H -1.071 C -1.655,0 -2.15,-0.207 -2.555,-0.62 -2.961,-1.034 -3.164,-1.533 -3.164,-2.117 v -6.304 -0.024 -6.303 c 0,-0.585 0.203,-1.083 0.609,-1.497 0.405,-0.414 0.9,-0.621 1.484,-0.621 H 0 c 0.568,0.033 1.05,0.252 1.448,0.657 0.398,0.405 0.596,0.893 0.596,1.461 v 3.991 c -0.211,-0.097 -0.45,-0.207 -0.717,-0.329 -0.268,-0.121 -0.443,-0.198 -0.524,-0.23 -0.114,-0.066 -0.219,-0.167 -0.316,-0.305 -0.097,-0.138 -0.146,-0.345 -0.146,-0.62 v -2.239 c 0,-0.244 -0.09,-0.456 -0.268,-0.633 -0.178,-0.179 -0.389,-0.268 -0.633,-0.268 -0.259,0 -0.474,0.089 -0.645,0.268 -0.17,0.177 -0.255,0.389 -0.255,0.633 v 6.035 0.024 6.036 c 0,0.243 0.085,0.442 0.255,0.596 0.171,0.154 0.386,0.231 0.645,0.231 0.244,0 0.455,-0.077 0.633,-0.231 0.178,-0.154 0.268,-0.353 0.268,-0.596 v -3.723 c 0.227,0.097 0.47,0.207 0.73,0.328 0.259,0.122 0.429,0.199 0.511,0.231 0.113,0.065 0.219,0.166 0.316,0.305 0.098,0.138 0.146,0.344 0.146,0.62 v 2.507 c 0,0.567 -0.198,1.055 -0.596,1.46 C 1.05,-0.252 0.568,-0.032 0,0"
               style="fill:#4f4c4d;fill-opacity:1;fill-rule:nonzero;stroke:none"
               id="path1942" />
          </g>
          <g
             id="g1944"
             transform="translate(223.1066,94.7906)">
            <path
               d="M 0,0 -1.801,8.664 C -1.85,8.908 -1.943,9.123 -2.081,9.31 -2.219,9.496 -2.531,9.59 -3.018,9.59 H -3.796 V -7.058 h 1.703 v 9.297 l 1.837,-8.225 c 0.016,-0.082 0.045,-0.183 0.086,-0.305 0.041,-0.122 0.102,-0.239 0.184,-0.353 0.081,-0.114 0.196,-0.21 0.342,-0.292 0.147,-0.082 0.335,-0.122 0.564,-0.122 H 1.704 V 9.59 H 0 Z"
               style="fill:#4f4c4d;fill-opacity:1;fill-rule:nonzero;stroke:none"
               id="path1946" />
          </g>
          <g
             id="g1948"
             transform="translate(233.3288,90.0211)">
            <path
               d="m 0,0 c 0,-0.26 -0.089,-0.479 -0.268,-0.657 -0.179,-0.179 -0.398,-0.268 -0.657,-0.268 h -0.243 c -0.26,0.016 -0.475,0.11 -0.645,0.279 C -1.984,-0.475 -2.069,-0.26 -2.069,0 v 12.047 c 0,0.26 0.085,0.474 0.256,0.644 0.17,0.171 0.377,0.264 0.62,0.281 h 0.268 c 0.259,0 0.478,-0.09 0.657,-0.268 C -0.089,12.525 0,12.307 0,12.047 Z m -0.341,14.456 h -1.314 c -0.584,0 -1.083,-0.207 -1.497,-0.62 -0.414,-0.414 -0.62,-0.913 -0.62,-1.497 V -0.316 c 0,-0.584 0.206,-1.08 0.62,-1.486 0.414,-0.405 0.913,-0.608 1.497,-0.608 h 1.314 c 0.276,0.016 0.539,0.082 0.791,0.195 0.251,0.113 0.47,0.264 0.657,0.45 0.186,0.187 0.332,0.402 0.438,0.645 0.105,0.243 0.159,0.512 0.159,0.804 v 12.655 c 0,0.567 -0.204,1.055 -0.609,1.46 -0.406,0.405 -0.885,0.625 -1.436,0.657"
               style="fill:#4f4c4d;fill-opacity:1;fill-rule:nonzero;stroke:none"
               id="path1950" />
          </g>
          <g
             id="g1952"
             transform="translate(241.5305,103.8687)">
            <path
               d="m 0,0 c 0,0.146 -0.049,0.268 -0.146,0.365 -0.098,0.098 -0.219,0.147 -0.365,0.147 h -1.193 v -16.648 h 4.089 c 0.276,0 0.483,0.049 0.621,0.147 0.137,0.096 0.239,0.202 0.304,0.316 0.032,0.08 0.109,0.251 0.231,0.511 0.122,0.259 0.223,0.503 0.304,0.73 H 0 Z"
               style="fill:#4f4c4d;fill-opacity:1;fill-rule:nonzero;stroke:none"
               id="path1954" />
          </g>
          <g
             id="g1956"
             transform="translate(251.1687,90.0211)">
            <path
               d="m 0,0 c 0,-0.26 -0.089,-0.479 -0.268,-0.657 -0.179,-0.179 -0.398,-0.268 -0.657,-0.268 h -0.243 c -0.26,0.016 -0.475,0.11 -0.645,0.279 C -1.984,-0.475 -2.069,-0.26 -2.069,0 v 12.047 c 0,0.26 0.085,0.474 0.256,0.644 0.17,0.171 0.377,0.264 0.62,0.281 h 0.268 c 0.259,0 0.478,-0.09 0.657,-0.268 C -0.089,12.525 0,12.307 0,12.047 Z m -0.341,14.456 h -1.314 c -0.584,0 -1.083,-0.207 -1.497,-0.62 -0.414,-0.414 -0.62,-0.913 -0.62,-1.497 V -0.316 c 0,-0.584 0.206,-1.08 0.62,-1.486 0.414,-0.405 0.913,-0.608 1.497,-0.608 h 1.314 c 0.276,0.016 0.539,0.082 0.791,0.195 0.251,0.113 0.47,0.264 0.657,0.45 0.186,0.187 0.332,0.402 0.438,0.645 0.105,0.243 0.159,0.512 0.159,0.804 v 12.655 c 0,0.567 -0.204,1.055 -0.609,1.46 -0.406,0.405 -0.885,0.625 -1.436,0.657"
               style="fill:#4f4c4d;fill-opacity:1;fill-rule:nonzero;stroke:none"
               id="path1958" />
          </g>
          <g
             id="g1960"
             transform="translate(260.7566,104.4771)">
            <path
               d="M 0,0 H -1.071 C -1.655,0 -2.15,-0.207 -2.556,-0.62 -2.961,-1.034 -3.164,-1.533 -3.164,-2.117 v -12.631 c 0,-0.585 0.203,-1.083 0.608,-1.497 0.406,-0.414 0.901,-0.621 1.485,-0.621 H 0 c 0.568,0.033 1.05,0.252 1.448,0.657 0.398,0.405 0.596,0.893 0.596,1.461 v 6.011 c 0,0.324 -0.077,0.555 -0.231,0.694 -0.154,0.138 -0.353,0.206 -0.596,0.206 h -2.142 l 0.584,-1.168 c 0.065,-0.13 0.13,-0.231 0.195,-0.304 0.064,-0.073 0.13,-0.126 0.195,-0.158 0.064,-0.049 0.138,-0.073 0.219,-0.073 h 0.073 v -4.94 c 0,-0.244 -0.09,-0.456 -0.268,-0.633 -0.179,-0.179 -0.389,-0.268 -0.633,-0.268 -0.259,0 -0.474,0.089 -0.645,0.268 -0.17,0.177 -0.255,0.389 -0.255,0.633 v 12.095 c 0,0.243 0.085,0.454 0.255,0.633 0.171,0.178 0.386,0.268 0.645,0.268 0.244,0 0.454,-0.09 0.633,-0.268 0.178,-0.179 0.268,-0.39 0.268,-0.633 v -2.288 c 0.21,0.098 0.45,0.207 0.718,0.329 0.267,0.121 0.441,0.198 0.523,0.231 0.113,0.065 0.219,0.167 0.316,0.304 0.098,0.138 0.146,0.345 0.146,0.621 v 1.071 c 0,0.567 -0.198,1.055 -0.596,1.46 C 1.05,-0.252 0.568,-0.032 0,0"
               style="fill:#4f4c4d;fill-opacity:1;fill-rule:nonzero;stroke:none"
               id="path1962" />
          </g>
          <g
             id="g1964"
             transform="translate(268.1071,104.3804)">
            <path
               d="m 0,0 h -1.022 v -16.282 c 0.016,-0.082 0.052,-0.162 0.109,-0.243 0.057,-0.082 0.183,-0.122 0.377,-0.122 h 1.217 v 15.99 c 0,0.129 -0.049,0.271 -0.146,0.426 C 0.438,-0.078 0.259,0 0,0"
               style="fill:#4f4c4d;fill-opacity:1;fill-rule:nonzero;stroke:none"
               id="path1966" />
          </g>
          <g
             id="g1968"
             transform="translate(277.0139,103.4791)">
            <path
               d="m 0,0 c -0.033,0.228 -0.102,0.435 -0.207,0.621 -0.105,0.187 -0.345,0.28 -0.718,0.28 h -0.9 l -2.531,-16.647 h 1.874 l 1.509,11.487 1.484,-11.487 h 1.874 z"
               style="fill:#4f4c4d;fill-opacity:1;fill-rule:nonzero;stroke:none"
               id="path1970" />
          </g>
        </g>
      </g>
    </g>
  </g>
</svg>
