<svg width="0" height="0" class="hidden">
  <symbol version="1.1" id="gol" sodipodiDocname="gol.svg" inkscapeVersion="1.2.1 (9c6d41e410, 2022-07-14)" xmlnsInkscape="http://www.inkscape.org/namespaces/inkscape" xmlnsSodipodi="http://sodipodi.sourceforge.net/DTD/sodipodi-0.dtd" xmlns="http://www.w3.org/2000/svg" xmlnsSvg="http://www.w3.org/2000/svg" viewBox="0 0 177.778 100">
    <defs id="defs32"></defs>
    <sodipodi:namedview id="namedview30" pagecolor="#ffffff" bordercolor="#000000" borderopacity="0.25" inkscapeShowpageshadow="2" inkscapePageopacity="0.0" inkscapePagecheckerboard="0" inkscapeDeskcolor="#d1d1d1" showgrid="false" inkscapeZoom="5.8468819" inkscapeCx="72.517285" inkscapeCy="50.197696" inkscapeWindowWidth="1920" inkscapeWindowHeight="1012" inkscapeWindowX="0" inkscapeWindowY="32" inkscapeWindowMaximized="1" inkscapeCurrentLayer="g6452"></sodipodi:namedview>
    <g id="g6452" transform="matrix(0.65586586,0,0,0.65586586,16.866729,-42.165807)">
      <path inkscapeConnectorCurvature="0" id="path600" d="m 38.660156,171.28516 c 0,-0.11719 0.03906,-0.22266 0.109375,-0.30469 0.07031,-0.082 0.175782,-0.1211 0.320313,-0.1211 h 0.628906 c 0.144531,0 0.25,0.0391 0.320313,0.1211 0.07031,0.082 0.109375,0.1875 0.109375,0.30469 v 5.66406 c 0,0.40625 0.08594,0.69922 0.265625,0.88281 0.175781,0.18359 0.4375,0.27734 0.792968,0.27734 h 1.832032 c 0.152343,0 0.261718,0.0391 0.328125,0.11719 0.06641,0.0781 0.101562,0.17969 0.101562,0.3086 v 0.33984 c 0,0.11719 -0.03516,0.21875 -0.101562,0.30078 -0.06641,0.0859 -0.175782,0.125 -0.328125,0.125 h -2.136719 c -0.734375,0 -1.292969,-0.19531 -1.671875,-0.58984 -0.378906,-0.39453 -0.570313,-0.95703 -0.570313,-1.69532 v -5.73046"></path>
      <path inkscapeConnectorCurvature="0" id="path602" d="M 44.832031,174.29297 H 44.28125 c -0.152344,0 -0.261719,-0.043 -0.328125,-0.125 -0.06641,-0.082 -0.101562,-0.1875 -0.101562,-0.31641 v -0.28125 c 0,-0.12109 0.03516,-0.21875 0.101562,-0.30469 0.06641,-0.082 0.175781,-0.12109 0.328125,-0.12109 h 1.527344 c 0.144531,0 0.25,0.0391 0.324219,0.12109 0.07031,0.0859 0.105468,0.1836 0.105468,0.30469 v 5.30469 c 0,0.11719 -0.03516,0.21875 -0.105468,0.30078 -0.07422,0.0859 -0.179688,0.125 -0.324219,0.125 h -0.550781 c -0.148438,0 -0.257813,-0.0391 -0.324219,-0.125 -0.06641,-0.082 -0.101563,-0.18359 -0.101563,-0.30078 z m 0.425782,-2.17578 c -0.148438,0 -0.257813,-0.0391 -0.324219,-0.11719 -0.06641,-0.0781 -0.101563,-0.18359 -0.101563,-0.30859 v -0.40625 c 0,-0.11719 0.03516,-0.22266 0.101563,-0.30469 0.06641,-0.082 0.175781,-0.1211 0.324219,-0.1211 h 0.550781 c 0.144531,0 0.25,0.0391 0.324219,0.1211 0.07031,0.082 0.105468,0.1875 0.105468,0.30469 v 0.40625 c 0,0.125 -0.03516,0.23046 -0.105468,0.30859 -0.07422,0.0781 -0.179688,0.11719 -0.324219,0.11719 h -0.550781"></path>
      <path inkscapeConnectorCurvature="0" id="path604" d="m 48.085938,173.57031 c 0,-0.12109 0.03516,-0.21875 0.105468,-0.30469 0.07031,-0.082 0.179688,-0.12109 0.320313,-0.12109 H 49.0625 c 0.144531,0 0.25,0.0391 0.320313,0.12109 0.07422,0.0859 0.109375,0.1836 0.109375,0.30469 v 0.69922 l 0.394531,-0.40625 c 0.214844,-0.22266 0.464844,-0.41797 0.746094,-0.57422 0.28125,-0.15625 0.628906,-0.23437 1.042968,-0.23437 0.511719,0 0.933594,0.14453 1.265625,0.42968 0.332032,0.28907 0.5,0.8086 0.5,1.55079 v 3.83984 c 0,0.11719 -0.03125,0.21875 -0.101562,0.30078 -0.06641,0.0859 -0.175781,0.125 -0.324219,0.125 h -0.550781 c -0.152344,0 -0.261719,-0.0391 -0.328125,-0.125 -0.06641,-0.082 -0.101563,-0.18359 -0.101563,-0.30078 v -3.57031 c 0,-0.42578 -0.08203,-0.71485 -0.253906,-0.86328 -0.167969,-0.14454 -0.363281,-0.21875 -0.589844,-0.21875 -0.261718,0 -0.519531,0.10156 -0.765625,0.30078 -0.246093,0.19922 -0.453125,0.3789 -0.617187,0.54297 l -0.316406,0.3164 v 3.49219 c 0,0.11719 -0.03516,0.21875 -0.109375,0.30078 -0.07031,0.0859 -0.175782,0.125 -0.320313,0.125 h -0.550781 c -0.140625,0 -0.25,-0.0391 -0.320313,-0.125 -0.07031,-0.082 -0.105468,-0.18359 -0.105468,-0.30078 v -5.30469"></path>
      <path inkscapeConnectorCurvature="0" id="path606" d="m 55.265625,171.28516 c 0,-0.11719 0.03516,-0.22266 0.109375,-0.30469 0.07031,-0.082 0.175781,-0.1211 0.320313,-0.1211 h 0.550781 c 0.140625,0 0.25,0.0391 0.320312,0.1211 0.07031,0.082 0.105469,0.1875 0.105469,0.30469 v 2.98437 l 0.394531,-0.40625 c 0.21875,-0.22266 0.46875,-0.41797 0.75,-0.57422 0.28125,-0.15625 0.628907,-0.23437 1.042969,-0.23437 0.507813,0 0.929688,0.15625 1.265625,0.46484 0.332031,0.3125 0.5,0.85938 0.5,1.63672 v 3.71875 c 0,0.11719 -0.03516,0.21875 -0.101562,0.30078 -0.06641,0.0859 -0.175782,0.125 -0.324219,0.125 H 59.65625 c -0.148437,0 -0.257812,-0.0391 -0.324219,-0.125 -0.07031,-0.082 -0.101562,-0.18359 -0.101562,-0.30078 v -3.57031 c 0,-0.42578 -0.08594,-0.71485 -0.261719,-0.86328 -0.171875,-0.14454 -0.371094,-0.21875 -0.59375,-0.21875 -0.265625,0 -0.519531,0.10156 -0.765625,0.30078 -0.25,0.19922 -0.453125,0.3789 -0.621094,0.54297 l -0.316406,0.3164 v 3.49219 c 0,0.11719 -0.03516,0.21875 -0.105469,0.30078 -0.07031,0.0859 -0.179687,0.125 -0.320312,0.125 h -0.550781 c -0.144532,0 -0.25,-0.0391 -0.320313,-0.125 -0.07422,-0.082 -0.109375,-0.18359 -0.109375,-0.30078 v -7.58984"></path>
      <path inkscapeConnectorCurvature="0" id="path608" d="m 62.101563,176.30469 c 0,-0.95703 0.339843,-1.72657 1.027343,-2.30078 0.6875,-0.57422 1.457032,-0.85938 2.3125,-0.85938 h 1.691407 c 0.140625,0 0.25,0.0391 0.320312,0.12109 0.07031,0.0859 0.105469,0.1836 0.105469,0.30469 v 5.30469 c 0,0.11719 -0.03516,0.21875 -0.105469,0.30078 -0.07031,0.0859 -0.179687,0.125 -0.320312,0.125 h -0.550782 c -0.144531,0 -0.25,-0.0391 -0.324218,-0.125 -0.07031,-0.082 -0.105469,-0.18359 -0.105469,-0.30078 v -0.64453 l -0.449219,0.40625 c -0.234375,0.21094 -0.492187,0.38672 -0.777344,0.53515 -0.285156,0.14454 -0.628906,0.21875 -1.035156,0.21875 -0.496094,0 -0.917969,-0.16796 -1.265625,-0.5 -0.351562,-0.33203 -0.523437,-0.875 -0.523437,-1.61718 z m 1.40625,0.84765 c 0,0.42578 0.08203,0.71094 0.246093,0.85547 0.167969,0.14063 0.363282,0.21094 0.597657,0.21094 0.277343,0 0.554687,-0.10156 0.832031,-0.30859 0.277344,-0.20704 0.5,-0.37891 0.664062,-0.52344 l 0.304688,-0.30469 v -2.78906 h -0.628906 c -0.578125,0 -1.058594,0.17969 -1.441407,0.53906 -0.382812,0.35938 -0.574218,0.84766 -0.574218,1.46484 v 0.85547"></path>
      <path inkscapeConnectorCurvature="0" id="path610" d="m 69.113281,178.43359 c 0,-0.12109 0.03125,-0.20703 0.08984,-0.25781 0.05859,-0.0547 0.140625,-0.0781 0.238281,-0.0781 h 0.05469 l 0.06641,0.0117 c 0.277344,0.043 0.53125,0.0781 0.753906,0.10157 0.226563,0.0195 0.476563,0.0312 0.746094,0.0312 0.367188,0 0.6875,-0.0508 0.957031,-0.15625 0.269532,-0.10547 0.402344,-0.30469 0.402344,-0.59766 0,-0.21094 -0.09375,-0.36719 -0.28125,-0.47266 -0.1875,-0.10546 -0.390625,-0.18359 -0.605469,-0.23828 l -0.9375,-0.21093 c -0.449218,-0.11329 -0.8125,-0.30079 -1.09375,-0.5586 -0.285156,-0.25781 -0.421875,-0.63672 -0.421875,-1.1289 0,-0.61719 0.257813,-1.07422 0.773438,-1.375 0.519531,-0.30079 1.148437,-0.44922 1.894531,-0.44922 0.296875,0 0.550781,0.0117 0.753906,0.0312 0.199219,0.0234 0.429688,0.0586 0.683594,0.10156 0.121094,0.0156 0.207031,0.0586 0.261719,0.125 0.05078,0.0664 0.07813,0.16016 0.07813,0.28125 v 0.39453 c 0,0.11328 -0.02734,0.19922 -0.08594,0.25781 -0.05469,0.0586 -0.132812,0.0898 -0.230468,0.0898 l -0.125,-0.0156 -0.167969,-0.0273 c -0.15625,-0.0234 -0.335938,-0.043 -0.535156,-0.0625 -0.199219,-0.0195 -0.40625,-0.0273 -0.625,-0.0273 -0.359375,0 -0.65625,0.0508 -0.894532,0.14844 -0.234375,0.10156 -0.355468,0.28125 -0.355468,0.53516 0,0.21094 0.08203,0.35156 0.238281,0.42187 0.15625,0.0742 0.332031,0.13282 0.527344,0.1875 l 0.824218,0.19141 c 0.472657,0.11328 0.882813,0.29297 1.230469,0.53906 0.351563,0.25 0.523438,0.66797 0.523438,1.26172 0,0.73438 -0.289063,1.23828 -0.871094,1.50391 -0.582031,0.26562 -1.222656,0.39843 -1.917969,0.39843 -0.308594,0 -0.582031,-0.0117 -0.824219,-0.0391 -0.238281,-0.0273 -0.492187,-0.0586 -0.765625,-0.0937 -0.140625,-0.0234 -0.238281,-0.0703 -0.285156,-0.14453 -0.05078,-0.0703 -0.07422,-0.16406 -0.07422,-0.28516 v -0.39453"></path>
      <path inkscapeConnectorCurvature="0" id="path612" d="m 77.929688,176.30469 c 0,-0.95703 0.339843,-1.72657 1.027343,-2.30078 0.6875,-0.57422 1.460938,-0.85938 2.3125,-0.85938 h 1.691407 c 0.140625,0 0.25,0.0391 0.320312,0.12109 0.07031,0.0859 0.105469,0.1836 0.105469,0.30469 v 5.30469 c 0,0.11719 -0.03516,0.21875 -0.105469,0.30078 -0.07031,0.0859 -0.179687,0.125 -0.320312,0.125 h -0.550782 c -0.144531,0 -0.25,-0.0391 -0.320312,-0.125 -0.07422,-0.082 -0.109375,-0.18359 -0.109375,-0.30078 v -0.64453 l -0.449219,0.40625 c -0.234375,0.21094 -0.492187,0.38672 -0.777344,0.53515 -0.285156,0.14454 -0.628906,0.21875 -1.035156,0.21875 -0.496094,0 -0.917969,-0.16796 -1.265625,-0.5 -0.351562,-0.33203 -0.523437,-0.875 -0.523437,-1.61718 z m 1.40625,0.84765 c 0,0.42578 0.08203,0.71094 0.246093,0.85547 0.167969,0.14063 0.367188,0.21094 0.597657,0.21094 0.277343,0 0.554687,-0.10156 0.832031,-0.30859 0.277344,-0.20704 0.5,-0.37891 0.664062,-0.52344 l 0.304688,-0.30469 v -2.78906 h -0.628906 c -0.578125,0 -1.058594,0.17969 -1.441407,0.53906 -0.382812,0.35938 -0.574218,0.84766 -0.574218,1.46484 v 0.85547"></path>
      <path inkscapeConnectorCurvature="0" id="path614" d="m 84.839844,175.69922 c 0,-0.8711 0.285156,-1.53125 0.855469,-1.97656 0.570312,-0.44532 1.261718,-0.66797 2.070312,-0.66797 0.65625,0 1.210938,0.14062 1.671875,0.42578 0.460938,0.28515 0.695313,0.7539 0.695313,1.40625 0,0.58594 -0.179688,1.02734 -0.535157,1.32422 -0.355468,0.29687 -0.851562,0.44531 -1.480468,0.44531 h -1.871094 v 0.26953 c 0,0.46484 0.148437,0.79688 0.441406,0.99609 0.292969,0.19922 0.640625,0.29688 1.046875,0.29688 0.308594,0 0.589844,-0.0273 0.84375,-0.082 0.253906,-0.0547 0.480469,-0.10938 0.675781,-0.15235 l 0.08594,-0.0156 0.07031,-0.008 0.1875,0.0781 c 0.04687,0.0547 0.07422,0.12891 0.07422,0.22656 v 0.34766 c 0,0.13672 -0.02344,0.24609 -0.07031,0.33203 -0.04297,0.0859 -0.128907,0.14453 -0.246094,0.17578 -0.1875,0.0547 -0.433594,0.10938 -0.738281,0.17578 -0.304688,0.0625 -0.613282,0.0937 -0.929688,0.0937 -0.800781,0 -1.476562,-0.1914 -2.023437,-0.57812 -0.550782,-0.38672 -0.824219,-1.02344 -0.824219,-1.91016 z m 1.40625,0.10156 h 1.511719 c 0.378906,0 0.644531,-0.0703 0.792968,-0.21094 0.144532,-0.13672 0.21875,-0.33593 0.21875,-0.60156 0,-0.28516 -0.101562,-0.48437 -0.296875,-0.59375 -0.199218,-0.11328 -0.449218,-0.17187 -0.75,-0.17187 -0.457031,0 -0.816406,0.12109 -1.082031,0.36328 -0.261719,0.23828 -0.394531,0.61718 -0.394531,1.13672 z m 0.722656,-3.53516 -0.167969,-0.0469 -0.05859,-0.10156 0.01172,-0.0703 0.05469,-0.0859 0.777344,-1.10157 c 0.0625,-0.0977 0.128906,-0.18359 0.210937,-0.25 0.07813,-0.0664 0.1875,-0.10156 0.332031,-0.10156 h 0.71875 c 0.113282,0 0.191407,0.0156 0.238282,0.0469 l 0.06641,0.13281 -0.03906,0.125 -0.09766,0.11328 -1.078125,1.03516 c -0.105469,0.0898 -0.203125,0.16406 -0.289062,0.21875 -0.08594,0.0586 -0.179688,0.0859 -0.285157,0.0859 H 86.96876"></path>
      <path inkscapeConnectorCurvature="0" id="path616" d="m 91.492188,173.57031 c 0,-0.12109 0.03906,-0.21875 0.109375,-0.30469 0.07031,-0.082 0.175781,-0.12109 0.320312,-0.12109 h 0.550781 c 0.144532,0 0.25,0.0391 0.320313,0.12109 0.07422,0.0859 0.105469,0.1836 0.105469,0.30469 v 0.74219 l 0.105468,-0.13281 c 0.207032,-0.3086 0.453125,-0.5625 0.734375,-0.76172 0.28125,-0.19922 0.601563,-0.29688 0.964844,-0.29688 h 0.05469 c 0.140625,0 0.25,0.0391 0.320312,0.11719 0.07031,0.0781 0.109375,0.18359 0.109375,0.30859 V 174 c 0,0.13281 -0.03906,0.23828 -0.109375,0.3125 -0.07031,0.0781 -0.179687,0.11328 -0.320312,0.11328 h -0.113282 c -0.222656,0 -0.441406,0.0352 -0.652343,0.10156 -0.210938,0.0664 -0.394532,0.16797 -0.550782,0.30469 -0.0078,0 -0.09766,0.082 -0.269531,0.24609 -0.171875,0.16797 -0.261719,0.25391 -0.273437,0.26172 v 3.53516 c 0,0.11719 -0.03125,0.21875 -0.105469,0.30078 -0.07031,0.0859 -0.175781,0.125 -0.320313,0.125 h -0.550781 c -0.144531,0 -0.25,-0.0391 -0.320312,-0.125 -0.07031,-0.082 -0.109375,-0.18359 -0.109375,-0.30078 v -5.30469"></path>
      <path inkscapeConnectorCurvature="0" id="path618" d="m 95.761719,175.69922 c 0,-0.8711 0.285156,-1.53125 0.855469,-1.97656 0.570312,-0.44532 1.261718,-0.66797 2.070312,-0.66797 0.652344,0 1.210938,0.14062 1.67188,0.42578 0.46093,0.28515 0.6914,0.7539 0.6914,1.40625 0,0.58594 -0.17578,1.02734 -0.53515,1.32422 -0.35547,0.29687 -0.847661,0.44531 -1.480474,0.44531 h -1.867187 v 0.26953 c 0,0.46484 0.144531,0.79688 0.4375,0.99609 0.292969,0.19922 0.644531,0.29688 1.046875,0.29688 0.308594,0 0.589844,-0.0273 0.847656,-0.082 0.253906,-0.0547 0.476563,-0.10938 0.67188,-0.15235 l 0.0859,-0.0156 0.0742,-0.008 0.1836,0.0781 c 0.0508,0.0547 0.0742,0.12891 0.0742,0.22656 v 0.34766 c 0,0.13672 -0.0234,0.24609 -0.0664,0.33203 -0.0469,0.0859 -0.12891,0.14453 -0.25,0.17578 -0.1875,0.0547 -0.433596,0.10938 -0.734377,0.17578 -0.304688,0.0625 -0.617188,0.0937 -0.929688,0.0937 -0.804687,0 -1.480469,-0.1914 -2.027344,-0.57812 -0.546875,-0.38672 -0.820312,-1.02344 -0.820312,-1.91016 z m 1.40625,0.10156 h 1.507812 c 0.382813,0 0.648438,-0.0703 0.792969,-0.21094 0.148438,-0.13672 0.21875,-0.33593 0.21875,-0.60156 0,-0.28516 -0.09766,-0.48437 -0.296875,-0.59375 -0.199219,-0.11328 -0.449219,-0.17187 -0.75,-0.17187 -0.457031,0 -0.816406,0.12109 -1.078125,0.36328 -0.265625,0.23828 -0.394531,0.61718 -0.394531,1.13672 v 0.0781"></path>
      <path inkscapeConnectorCurvature="0" id="path620" d="m 102.06641,176.30469 c 0,-0.95703 0.34375,-1.72657 1.02734,-2.30078 0.6875,-0.57422 1.45703,-0.85938 2.31641,-0.85938 h 1.6875 c 0.14062,0 0.25,0.0391 0.32031,0.12109 0.0703,0.0859 0.10547,0.1836 0.10547,0.30469 v 5.30469 c 0,0.11719 -0.0352,0.21875 -0.10547,0.30078 -0.0703,0.0859 -0.17969,0.125 -0.32031,0.125 h -0.55078 c -0.14454,0 -0.25,-0.0391 -0.32422,-0.125 -0.0703,-0.082 -0.10547,-0.18359 -0.10547,-0.30078 v -0.64453 l -0.44922,0.40625 c -0.23438,0.21094 -0.49219,0.38672 -0.77734,0.53515 -0.28516,0.14454 -0.62891,0.21875 -1.03516,0.21875 -0.49609,0 -0.91797,-0.16796 -1.26563,-0.5 -0.35156,-0.33203 -0.52343,-0.875 -0.52343,-1.61718 z m 1.40625,0.84765 c 0,0.42578 0.082,0.71094 0.24609,0.85547 0.16406,0.14063 0.36328,0.21094 0.59766,0.21094 0.27734,0 0.55468,-0.10156 0.83203,-0.30859 0.27734,-0.20704 0.5,-0.37891 0.66406,-0.52344 l 0.30469,-0.30469 v -2.78906 h -0.62891 c -0.57812,0 -1.05859,0.17969 -1.4414,0.53906 -0.38282,0.35938 -0.57422,0.84766 -0.57422,1.46484 v 0.85547"></path>
      <path inkscapeConnectorCurvature="0" id="path622" d="m 109.07813,178.43359 c 0,-0.12109 0.0312,-0.20703 0.0898,-0.25781 0.0586,-0.0547 0.14062,-0.0781 0.23828,-0.0781 h 0.0547 l 0.0664,0.0117 c 0.27735,0.043 0.53125,0.0781 0.75782,0.10157 0.22265,0.0195 0.46875,0.0312 0.73828,0.0312 0.37109,0 0.6875,-0.0508 0.95703,-0.15625 0.27344,-0.10547 0.40625,-0.30469 0.40625,-0.59766 0,-0.21094 -0.0937,-0.36719 -0.28125,-0.47266 -0.1875,-0.10546 -0.39063,-0.18359 -0.60547,-0.23828 l -0.9375,-0.21093 c -0.44922,-0.11329 -0.81641,-0.30079 -1.09766,-0.5586 -0.28125,-0.25781 -0.42187,-0.63672 -0.42187,-1.1289 0,-0.61719 0.26172,-1.07422 0.77734,-1.375 0.51953,-0.30079 1.14844,-0.44922 1.89063,-0.44922 0.30078,0 0.55469,0.0117 0.7539,0.0312 0.20313,0.0234 0.4336,0.0586 0.6875,0.10156 0.1211,0.0156 0.20704,0.0586 0.26172,0.125 0.0508,0.0664 0.0781,0.16016 0.0781,0.28125 v 0.39453 c 0,0.11328 -0.0273,0.19922 -0.0859,0.25781 -0.0547,0.0586 -0.13281,0.0898 -0.23047,0.0898 l -0.125,-0.0156 -0.16797,-0.0273 c -0.15625,-0.0234 -0.33593,-0.043 -0.53515,-0.0625 -0.19922,-0.0195 -0.40625,-0.0273 -0.625,-0.0273 -0.35938,0 -0.65625,0.0508 -0.89453,0.14844 -0.23438,0.10156 -0.35547,0.28125 -0.35547,0.53516 0,0.21094 0.082,0.35156 0.23828,0.42187 0.15625,0.0742 0.33203,0.13282 0.52734,0.1875 l 0.82422,0.19141 c 0.47266,0.11328 0.88281,0.29297 1.23047,0.53906 0.35156,0.25 0.52344,0.66797 0.52344,1.26172 0,0.73438 -0.28907,1.23828 -0.8711,1.50391 -0.58203,0.26562 -1.22265,0.39843 -1.92187,0.39843 -0.30469,0 -0.57813,-0.0117 -0.82031,-0.0391 -0.23829,-0.0273 -0.4961,-0.0586 -0.76563,-0.0937 -0.14062,-0.0234 -0.23828,-0.0703 -0.28516,-0.14453 -0.0508,-0.0703 -0.0742,-0.16406 -0.0742,-0.28516 v -0.39453"></path>
      <path inkscapeConnectorCurvature="0" id="path624" d="m 118.42188,174.29297 h -0.55079 c -0.15234,0 -0.26171,-0.043 -0.32812,-0.125 -0.0664,-0.082 -0.10156,-0.1875 -0.10156,-0.31641 v -0.28125 c 0,-0.12109 0.0352,-0.21875 0.10156,-0.30469 0.0664,-0.082 0.17578,-0.12109 0.32812,-0.12109 h 1.53125 c 0.14063,0 0.25,0.0391 0.32032,0.12109 0.0703,0.0859 0.10547,0.1836 0.10547,0.30469 v 5.30469 c 0,0.11719 -0.0352,0.21875 -0.10547,0.30078 -0.0703,0.0859 -0.17969,0.125 -0.32032,0.125 h -0.55468 c -0.14844,0 -0.25782,-0.0391 -0.32422,-0.125 -0.0664,-0.082 -0.10156,-0.18359 -0.10156,-0.30078 z m 0.42578,-2.17578 c -0.14844,0 -0.25782,-0.0391 -0.32422,-0.11719 -0.0664,-0.0781 -0.10156,-0.18359 -0.10156,-0.30859 v -0.40625 c 0,-0.11719 0.0352,-0.22266 0.10156,-0.30469 0.0664,-0.082 0.17578,-0.1211 0.32422,-0.1211 h 0.55468 c 0.14063,0 0.25,0.0391 0.32032,0.1211 0.0703,0.082 0.10547,0.1875 0.10547,0.30469 v 0.40625 c 0,0.125 -0.0352,0.23046 -0.10547,0.30859 -0.0703,0.0781 -0.17969,0.11719 -0.32032,0.11719 h -0.55468"></path>
      <path inkscapeConnectorCurvature="0" id="path626" d="m 121.67578,173.57031 c 0,-0.12109 0.0352,-0.21875 0.10547,-0.30469 0.0703,-0.082 0.17969,-0.12109 0.32031,-0.12109 h 0.55469 c 0.14063,0 0.25,0.0391 0.32031,0.12109 0.0703,0.0859 0.10547,0.1836 0.10547,0.30469 v 0.69922 l 0.39453,-0.40625 c 0.21875,-0.22266 0.46485,-0.41797 0.75,-0.57422 0.28125,-0.15625 0.625,-0.23437 1.03907,-0.23437 0.51171,0 0.93359,0.14453 1.26953,0.42968 0.33203,0.28907 0.5,0.8086 0.5,1.55079 v 3.83984 c 0,0.11719 -0.0352,0.21875 -0.10157,0.30078 -0.0664,0.0859 -0.17578,0.125 -0.32812,0.125 h -0.55078 c -0.14844,0 -0.25781,-0.0391 -0.32813,-0.125 -0.0664,-0.082 -0.0977,-0.18359 -0.0977,-0.30078 v -3.57031 c 0,-0.42578 -0.0859,-0.71485 -0.25391,-0.86328 -0.17187,-0.14454 -0.36719,-0.21875 -0.59375,-0.21875 -0.26172,0 -0.51562,0.10156 -0.76562,0.30078 -0.2461,0.19922 -0.45313,0.3789 -0.61719,0.54297 l -0.31641,0.3164 v 3.49219 c 0,0.11719 -0.0352,0.21875 -0.10547,0.30078 -0.0703,0.0859 -0.17968,0.125 -0.32031,0.125 h -0.55469 c -0.14062,0 -0.25,-0.0391 -0.32031,-0.125 -0.0703,-0.082 -0.10547,-0.18359 -0.10547,-0.30078 v -5.30469"></path>
      <path inkscapeConnectorCurvature="0" id="path628" d="m 128.94922,174.29297 h -0.46485 c -0.14843,0 -0.25781,-0.043 -0.32421,-0.125 -0.0664,-0.082 -0.10157,-0.1875 -0.10157,-0.31641 v -0.28125 c 0,-0.12109 0.0352,-0.21875 0.10157,-0.30469 0.0664,-0.082 0.17578,-0.12109 0.32421,-0.12109 h 0.46485 v -1.03906 c 0,-0.11719 0.0352,-0.21875 0.10547,-0.30078 0.0703,-0.082 0.17578,-0.125 0.32031,-0.125 h 0.55078 c 0.14453,0 0.25,0.043 0.32422,0.125 0.0703,0.082 0.10547,0.18359 0.10547,0.30078 v 1.03906 h 1.22656 c 0.14844,0 0.25781,0.0391 0.32813,0.12109 0.0664,0.0859 0.0977,0.1836 0.0977,0.30469 v 0.28125 c 0,0.12891 -0.0312,0.23438 -0.0977,0.31641 -0.0703,0.082 -0.17969,0.125 -0.32813,0.125 h -1.22656 v 2.5664 c 0,0.50782 0.0898,0.85157 0.26953,1.02735 0.17969,0.17969 0.49219,0.26562 0.93359,0.26562 h 0.20313 c 0.14453,0 0.25,0.043 0.32031,0.125 0.0742,0.082 0.10938,0.19141 0.10938,0.32422 v 0.27344 c 0,0.11719 -0.0352,0.21875 -0.10938,0.30078 -0.0703,0.0859 -0.17578,0.125 -0.32031,0.125 h -0.59766 c -0.69531,0 -1.24219,-0.17578 -1.6289,-0.52734 -0.39063,-0.35547 -0.58594,-0.91016 -0.58594,-1.66797 v -2.8125"></path>
      <path inkscapeConnectorCurvature="0" id="path630" d="m 133.06641,175.69922 c 0,-0.8711 0.28515,-1.53125 0.85546,-1.97656 0.57422,-0.44532 1.26172,-0.66797 2.07422,-0.66797 0.65235,0 1.21094,0.14062 1.67188,0.42578 0.46094,0.28515 0.6914,0.7539 0.6914,1.40625 0,0.58594 -0.17968,1.02734 -0.53515,1.32422 -0.35547,0.29687 -0.85156,0.44531 -1.48047,0.44531 h -1.87109 v 0.26953 c 0,0.46484 0.14843,0.79688 0.4414,0.99609 0.29297,0.19922 0.64063,0.29688 1.04688,0.29688 0.30859,0 0.58984,-0.0273 0.84375,-0.082 0.2539,-0.0547 0.48047,-0.10938 0.67578,-0.15235 l 0.0859,-0.0156 0.0703,-0.008 0.1875,0.0781 c 0.0469,0.0547 0.0742,0.12891 0.0742,0.22656 v 0.34766 c 0,0.13672 -0.0234,0.24609 -0.0664,0.33203 -0.0469,0.0859 -0.12891,0.14453 -0.25,0.17578 -0.1875,0.0547 -0.43359,0.10938 -0.73828,0.17578 -0.30078,0.0625 -0.61328,0.0937 -0.92578,0.0937 -0.80469,0 -1.48047,-0.1914 -2.02735,-0.57812 -0.55078,-0.38672 -0.82421,-1.02344 -0.82421,-1.91016 z m 1.40625,0.10156 h 1.51171 c 0.38282,0 0.64454,-0.0703 0.79297,-0.21094 0.14453,-0.13672 0.21875,-0.33593 0.21875,-0.60156 0,-0.28516 -0.0977,-0.48437 -0.29687,-0.59375 -0.19922,-0.11328 -0.44922,-0.17187 -0.75,-0.17187 -0.45703,0 -0.81641,0.12109 -1.08203,0.36328 -0.26172,0.23828 -0.39453,0.61718 -0.39453,1.13672 v 0.0781"></path>
      <path inkscapeConnectorCurvature="0" id="path632" d="m 139.77734,172.00781 h -0.55078 c -0.14453,0 -0.25,-0.043 -0.32031,-0.125 -0.0742,-0.082 -0.10938,-0.1875 -0.10938,-0.3164 v -0.28125 c 0,-0.11719 0.0352,-0.22266 0.10938,-0.30469 0.0703,-0.082 0.17578,-0.1211 0.32031,-0.1211 h 1.53125 c 0.14063,0 0.25,0.0391 0.32031,0.1211 0.0703,0.082 0.10547,0.1875 0.10547,0.30469 v 7.58984 c 0,0.11719 -0.0352,0.21875 -0.10547,0.30078 -0.0703,0.0859 -0.17968,0.125 -0.32031,0.125 h -0.55078 c -0.14453,0 -0.25,-0.0391 -0.32031,-0.125 -0.0742,-0.082 -0.10938,-0.18359 -0.10938,-0.30078 v -6.86719"></path>
      <path inkscapeConnectorCurvature="0" id="path634" d="m 143.21094,174.29297 h -0.55078 c -0.15235,0 -0.26172,-0.043 -0.32813,-0.125 -0.0664,-0.082 -0.10156,-0.1875 -0.10156,-0.31641 v -0.28125 c 0,-0.12109 0.0352,-0.21875 0.10156,-0.30469 0.0664,-0.082 0.17578,-0.12109 0.32813,-0.12109 h 1.53125 c 0.14062,0 0.25,0.0391 0.32031,0.12109 0.0703,0.0859 0.10547,0.1836 0.10547,0.30469 v 5.30469 c 0,0.11719 -0.0352,0.21875 -0.10547,0.30078 -0.0703,0.0859 -0.17969,0.125 -0.32031,0.125 h -0.55079 c -0.15234,0 -0.26171,-0.0391 -0.32812,-0.125 -0.0664,-0.082 -0.10156,-0.18359 -0.10156,-0.30078 z m 0.42968,-2.17578 c -0.15234,0 -0.26171,-0.0391 -0.32812,-0.11719 -0.0664,-0.0781 -0.10156,-0.18359 -0.10156,-0.30859 v -0.40625 c 0,-0.11719 0.0352,-0.22266 0.10156,-0.30469 0.0664,-0.082 0.17578,-0.1211 0.32812,-0.1211 h 0.55079 c 0.14062,0 0.25,0.0391 0.32031,0.1211 0.0703,0.082 0.10547,0.1875 0.10547,0.30469 v 0.40625 c 0,0.125 -0.0352,0.23046 -0.10547,0.30859 -0.0703,0.0781 -0.17969,0.11719 -0.32031,0.11719 h -0.55079"></path>
      <path inkscapeConnectorCurvature="0" id="path636" d="m 147.94922,180.26953 c 0.77344,0 1.34375,-0.12109 1.70703,-0.35937 0.36328,-0.24219 0.54687,-0.70313 0.54687,-1.38672 v -0.20313 l -0.23828,0.13672 c -0.24609,0.13672 -0.51562,0.25 -0.80468,0.34766 -0.28907,0.0977 -0.63672,0.14843 -1.04297,0.14843 -0.57422,0 -1.05469,-0.1875 -1.4336,-0.5625 -0.3789,-0.375 -0.5664,-0.93359 -0.5664,-1.67968 v -0.48438 c 0,-0.98828 0.30468,-1.75 0.91406,-2.28515 0.61328,-0.53125 1.34766,-0.79688 2.20312,-0.79688 h 1.9375 c 0.14844,0 0.25782,0.0391 0.32813,0.12109 0.0742,0.0859 0.10937,0.1836 0.10937,0.30469 v 4.91797 c 0,1.01563 -0.29687,1.75781 -0.88281,2.22656 -0.58984,0.46875 -1.39453,0.70313 -2.41797,0.70313 h -1.13672 c -0.14843,0 -0.25781,-0.043 -0.33203,-0.125 -0.0703,-0.082 -0.10547,-0.1875 -0.10547,-0.3125 v -0.27344 c 0,-0.125 0.0352,-0.23047 0.10547,-0.3125 0.0742,-0.0859 0.1836,-0.125 0.33203,-0.125 z m 1.45312,-5.97656 c -0.58593,0 -1.04687,0.16797 -1.3789,0.51172 -0.33594,0.33984 -0.5,0.82422 -0.5,1.44531 v 0.37109 c 0,0.40625 0.0859,0.69922 0.25781,0.88282 0.17187,0.18359 0.41797,0.27734 0.73047,0.27734 0.27734,0 0.53906,-0.0391 0.77734,-0.11328 0.24219,-0.0742 0.46875,-0.16016 0.6875,-0.25781 l 0.22656,-0.10157 v -3.01562 h -0.80078"></path>
      <path inkscapeConnectorCurvature="0" id="path638" d="m 153.0625,175.69922 c 0,-0.8711 0.28516,-1.53125 0.85547,-1.97656 0.57031,-0.44532 1.25781,-0.66797 2.07031,-0.66797 0.65234,0 1.21094,0.14062 1.67188,0.42578 0.46093,0.28515 0.6914,0.7539 0.6914,1.40625 0,0.58594 -0.17578,1.02734 -0.53515,1.32422 -0.35547,0.29687 -0.84766,0.44531 -1.48047,0.44531 h -1.86719 v 0.26953 c 0,0.46484 0.14453,0.79688 0.4375,0.99609 0.29297,0.19922 0.64453,0.29688 1.04687,0.29688 0.3086,0 0.58985,-0.0273 0.84766,-0.082 0.25391,-0.0547 0.48047,-0.10938 0.67188,-0.15235 l 0.0859,-0.0156 0.0742,-0.008 0.1836,0.0781 c 0.0508,0.0547 0.0742,0.12891 0.0742,0.22656 v 0.34766 c 0,0.13672 -0.0234,0.24609 -0.0664,0.33203 -0.0469,0.0859 -0.12891,0.14453 -0.25,0.17578 -0.1875,0.0547 -0.4336,0.10938 -0.73438,0.17578 -0.30468,0.0625 -0.61718,0.0937 -0.92968,0.0937 -0.80469,0 -1.48047,-0.1914 -2.02735,-0.57812 -0.54687,-0.38672 -0.82031,-1.02344 -0.82031,-1.91016 z m 1.40625,0.10156 h 1.50781 c 0.38281,0 0.64844,-0.0703 0.79297,-0.21094 0.14844,-0.13672 0.21875,-0.33593 0.21875,-0.60156 0,-0.28516 -0.0977,-0.48437 -0.29687,-0.59375 -0.19922,-0.11328 -0.44922,-0.17187 -0.75,-0.17187 -0.45704,0 -0.81641,0.12109 -1.07813,0.36328 -0.26562,0.23828 -0.39453,0.61718 -0.39453,1.13672 v 0.0781"></path>
      <path inkscapeConnectorCurvature="0" id="path640" d="m 159.71484,173.57031 c 0,-0.12109 0.0352,-0.21875 0.10547,-0.30469 0.0703,-0.082 0.17969,-0.12109 0.32422,-0.12109 h 0.55078 c 0.14063,0 0.25,0.0391 0.32031,0.12109 0.0703,0.0859 0.10547,0.1836 0.10547,0.30469 v 0.69922 l 0.39453,-0.40625 c 0.21875,-0.22266 0.46485,-0.41797 0.75,-0.57422 0.28125,-0.15625 0.62891,-0.23437 1.03907,-0.23437 0.51172,0 0.93359,0.14453 1.26953,0.42968 0.33203,0.28907 0.5,0.8086 0.5,1.55079 v 3.83984 c 0,0.11719 -0.0352,0.21875 -0.10156,0.30078 -0.0664,0.0859 -0.17579,0.125 -0.32813,0.125 h -0.55078 c -0.15234,0 -0.25781,-0.0391 -0.32422,-0.125 -0.0703,-0.082 -0.10156,-0.18359 -0.10156,-0.30078 v -3.57031 c 0,-0.42578 -0.0859,-0.71485 -0.25391,-0.86328 -0.16797,-0.14454 -0.36719,-0.21875 -0.59375,-0.21875 -0.26172,0 -0.51562,0.10156 -0.76562,0.30078 -0.2461,0.19922 -0.45313,0.3789 -0.61719,0.54297 l -0.31641,0.3164 v 3.49219 c 0,0.11719 -0.0352,0.21875 -0.10547,0.30078 -0.0703,0.0859 -0.17968,0.125 -0.32031,0.125 h -0.55078 c -0.14453,0 -0.25391,-0.0391 -0.32422,-0.125 -0.0703,-0.082 -0.10547,-0.18359 -0.10547,-0.30078 v -5.30469"></path>
      <path inkscapeConnectorCurvature="0" id="path642" d="m 166.98828,174.29297 h -0.46484 c -0.14844,0 -0.25782,-0.043 -0.32422,-0.125 -0.0664,-0.082 -0.10156,-0.1875 -0.10156,-0.31641 v -0.28125 c 0,-0.12109 0.0352,-0.21875 0.10156,-0.30469 0.0664,-0.082 0.17578,-0.12109 0.32422,-0.12109 h 0.46484 v -1.03906 c 0,-0.11719 0.0352,-0.21875 0.10547,-0.30078 0.0703,-0.082 0.17969,-0.125 0.32031,-0.125 h 0.55078 c 0.14453,0 0.25,0.043 0.32422,0.125 0.0703,0.082 0.10547,0.18359 0.10547,0.30078 v 1.03906 h 1.22656 c 0.14844,0 0.25782,0.0391 0.32813,0.12109 0.0664,0.0859 0.10156,0.1836 0.10156,0.30469 v 0.28125 c 0,0.12891 -0.0352,0.23438 -0.10156,0.31641 -0.0703,0.082 -0.17969,0.125 -0.32813,0.125 h -1.22656 v 2.5664 c 0,0.50782 0.0898,0.85157 0.26953,1.02735 0.17969,0.17969 0.49219,0.26562 0.9336,0.26562 h 0.20312 c 0.14063,0 0.25,0.043 0.32031,0.125 0.0703,0.082 0.10938,0.19141 0.10938,0.32422 v 0.27344 c 0,0.11719 -0.0391,0.21875 -0.10938,0.30078 -0.0703,0.0859 -0.17968,0.125 -0.32031,0.125 h -0.59766 c -0.69531,0 -1.24218,-0.17578 -1.6289,-0.52734 -0.39063,-0.35547 -0.58594,-0.91016 -0.58594,-1.66797 v -2.8125"></path>
      <path inkscapeConnectorCurvature="0" id="path644" d="m 171.10547,175.69922 c 0,-0.8711 0.28515,-1.53125 0.85937,-1.97656 0.57032,-0.44532 1.25782,-0.66797 2.07032,-0.66797 0.65234,0 1.21093,0.14062 1.67187,0.42578 0.46094,0.28515 0.69141,0.7539 0.69141,1.40625 0,0.58594 -0.17969,1.02734 -0.53516,1.32422 -0.35547,0.29687 -0.85156,0.44531 -1.48047,0.44531 h -1.87109 v 0.26953 c 0,0.46484 0.14844,0.79688 0.4414,0.99609 0.29297,0.19922 0.64063,0.29688 1.04688,0.29688 0.30859,0 0.58984,-0.0273 0.84375,-0.082 0.25391,-0.0547 0.48047,-0.10938 0.67578,-0.15235 l 0.0859,-0.0156 0.0703,-0.008 0.1875,0.0781 c 0.0469,0.0547 0.0742,0.12891 0.0742,0.22656 v 0.34766 c 0,0.13672 -0.0234,0.24609 -0.0703,0.33203 -0.043,0.0859 -0.125,0.14453 -0.2461,0.17578 -0.1875,0.0547 -0.43359,0.10938 -0.73828,0.17578 -0.30078,0.0625 -0.61328,0.0937 -0.92578,0.0937 -0.80469,0 -1.48047,-0.1914 -2.02734,-0.57812 -0.55078,-0.38672 -0.82422,-1.02344 -0.82422,-1.91016 z m 1.40625,0.10156 h 1.51172 c 0.38281,0 0.64453,-0.0703 0.79297,-0.21094 0.14453,-0.13672 0.21875,-0.33593 0.21875,-0.60156 0,-0.28516 -0.0977,-0.48437 -0.29688,-0.59375 -0.19922,-0.11328 -0.44922,-0.17187 -0.75,-0.17187 -0.45703,0 -0.81641,0.12109 -1.07812,0.36328 -0.26563,0.23828 -0.39844,0.61718 -0.39844,1.13672 v 0.0781"></path>
      <path inkscapeConnectorCurvature="0" id="path646" d="m 177.52344,178.43359 c 0,-0.12109 0.0312,-0.20703 0.0898,-0.25781 0.0586,-0.0547 0.14063,-0.0781 0.23828,-0.0781 h 0.0547 l 0.0664,0.0117 c 0.28125,0.043 0.53125,0.0781 0.7539,0.10157 0.22656,0.0195 0.47656,0.0312 0.7461,0.0312 0.36718,0 0.68359,-0.0508 0.95703,-0.15625 0.26953,-0.10547 0.40625,-0.30469 0.40625,-0.59766 0,-0.21094 -0.0977,-0.36719 -0.28516,-0.47266 -0.1875,-0.10546 -0.38672,-0.18359 -0.60547,-0.23828 l -0.9375,-0.21093 c -0.44922,-0.11329 -0.8164,-0.30079 -1.09375,-0.5586 -0.28125,-0.25781 -0.42187,-0.63672 -0.42187,-1.1289 0,-0.61719 0.25781,-1.07422 0.77343,-1.375 0.51954,-0.30079 1.14844,-0.44922 1.89063,-0.44922 0.30078,0 0.55469,0.0117 0.75781,0.0312 0.19922,0.0234 0.42969,0.0586 0.6836,0.10156 0.12109,0.0156 0.20703,0.0586 0.26171,0.125 0.0508,0.0664 0.0781,0.16016 0.0781,0.28125 v 0.39453 c 0,0.11328 -0.0273,0.19922 -0.0859,0.25781 -0.0547,0.0586 -0.13281,0.0898 -0.23047,0.0898 l -0.125,-0.0156 -0.16797,-0.0273 c -0.15625,-0.0234 -0.33593,-0.043 -0.53515,-0.0625 -0.19922,-0.0195 -0.40625,-0.0273 -0.625,-0.0273 -0.35938,0 -0.65625,0.0508 -0.89453,0.14844 -0.23438,0.10156 -0.35547,0.28125 -0.35547,0.53516 0,0.21094 0.082,0.35156 0.23828,0.42187 0.15625,0.0742 0.33594,0.13282 0.52734,0.1875 l 0.82422,0.19141 c 0.47266,0.11328 0.88281,0.29297 1.23438,0.53906 0.34765,0.25 0.51953,0.66797 0.51953,1.26172 0,0.73438 -0.28906,1.23828 -0.8711,1.50391 -0.58203,0.26562 -1.22265,0.39843 -1.91796,0.39843 -0.3086,0 -0.58204,-0.0117 -0.82422,-0.0391 -0.23828,-0.0273 -0.49219,-0.0586 -0.76563,-0.0937 -0.14062,-0.0234 -0.23828,-0.0703 -0.28515,-0.14453 -0.0508,-0.0703 -0.0742,-0.16406 -0.0742,-0.28516 v -0.39453"></path>
      <path inkscapeConnectorCurvature="0" id="path648" d="m 111.76953,162.62109 c 17.39453,0 31.49219,-14.10156 31.49219,-31.49218 0,-17.39453 -14.09766,-31.496097 -31.49219,-31.496097 -14.820311,0 -27.246092,10.234377 -30.601561,24.019527 -0.164063,0.67969 -0.773438,1.15625 -1.472656,1.15625 H 65.878906 c -0.839843,0 -1.515625,0.67969 -1.515625,1.51563 v 9.53906 c 0,0.83594 0.675782,1.51563 1.515625,1.51563 h 9.582032 c 0.835937,0 1.515625,0.67578 1.515625,1.51562 v 5.73828 c 0,0.45313 -0.203125,0.88281 -0.554688,1.17188 -3.269531,2.67187 -7.441406,4.28125 -11.992187,4.28125 -10.46875,0 -18.957032,-8.48828 -18.957032,-18.95703 0,-10.46875 8.488282,-18.95703 18.957032,-18.95703 2.96875,0 5.777343,0.68359 8.28125,1.90234 0.707031,0.34375 1.558593,0.0898 1.964843,-0.58984 l 4.867188,-8.19141 c 0.214844,-0.35938 0.269531,-0.78906 0.15625,-1.19141 -0.117188,-0.40234 -0.390625,-0.73828 -0.761719,-0.92968 -4.339844,-2.25782 -9.273437,-3.539067 -14.507812,-3.539067 -17.394532,0 -31.496094,14.101567 -31.496094,31.496097 0,17.39062 14.101562,31.49218 31.496094,31.49218 8.859375,0 16.859375,-3.65625 22.582031,-9.54297 0.285156,-0.29296 0.675781,-0.46093 1.085937,-0.46093 0.410157,0 0.800782,0.16797 1.085938,0.46093 5.726562,5.88672 13.726566,9.54297 22.585936,9.54297 m 0,-12.53515 c -10.46875,0 -18.95703,-8.48828 -18.95703,-18.95703 0,-10.46875 8.48828,-18.95703 18.95703,-18.95703 10.46875,0 18.95313,8.48828 18.95313,18.95703 0,10.46875 -8.48438,18.95703 -18.95313,18.95703"></path>
      <path inkscapeConnectorCurvature="0" id="path650" d="m 163.77734,125.06641 c -2.82812,-14.49219 -15.58984,-25.433597 -30.91015,-25.433597 -3.70313,0 -7.25,0.640627 -10.55078,1.812497 6.07031,2.16016 11.28515,6.125 14.98828,11.25391 8.32812,2 14.51953,9.48828 14.51953,18.42969 0,10.46875 -8.48828,18.95703 -18.95703,18.95703 -10.46875,0 -18.95703,-8.48828 -18.95703,-18.95703 0,-6.5625 3.33593,-12.34766 8.40234,-15.75 -3.01172,-2.02344 -6.64062,-3.20703 -10.54297,-3.20703 -1.53125,0 -3.01562,0.18359 -4.4414,0.52343 -3.7461,5.1836 -5.95704,11.55078 -5.95704,18.4336 0,17.39062 14.10157,31.49218 31.4961,31.49218 15.32031,0 28.08203,-10.9375 30.91015,-25.43359 v -12.12109"></path>
      <path inkscapeConnectorCurvature="0" id="path652" d="m 165.85547,149.29297 c -0.83594,0 -1.51172,-0.67578 -1.51172,-1.51563 v -45.64453 c 0,-0.83593 -0.67969,-1.51562 -1.51563,-1.51562 h -9.50781 c -0.83984,0 -1.51562,0.67969 -1.51562,1.51562 v 58.1836 c 0,0.83593 0.67578,1.51562 1.51562,1.51562 h 31.85938 c 0.83593,0 1.51172,-0.67969 1.51172,-1.51562 v -9.50782 c 0,-0.83593 -0.67579,-1.51562 -1.51172,-1.51562 h -19.32422"></path>
    </g>
  </symbol>
  <symbol version="1.1" id="oi" sodipodiDocname="oi.svg" inkscapeVersion="1.2.1 (9c6d41e410, 2022-07-14)" xmlnsInkscape="http://www.inkscape.org/namespaces/inkscape" xmlnsSodipodi="http://sodipodi.sourceforge.net/DTD/sodipodi-0.dtd" xmlns="http://www.w3.org/2000/svg" xmlnsSvg="http://www.w3.org/2000/svg" viewBox="0 0 177.778 100">
    <defs id="defs32"></defs>
    <sodipodi:namedview id="namedview30" pagecolor="#ffffff" bordercolor="#000000" borderopacity="0.25" inkscapeShowpageshadow="2" inkscapePageopacity="0.0" inkscapePagecheckerboard="0" inkscapeDeskcolor="#d1d1d1" showgrid="false" inkscapeZoom="5.8468819" inkscapeCx="72.517285" inkscapeCy="50.197696" inkscapeWindowWidth="1920" inkscapeWindowHeight="1012" inkscapeWindowX="0" inkscapeWindowY="32" inkscapeWindowMaximized="1" inkscapeCurrentLayer="Camada_x0020_1"></sodipodi:namedview>
    <g id="g6452" transform="matrix(0.65586586,0,0,0.65586586,16.866729,-42.165807)">
      <g transform="matrix(0.49302879,0,0,0.49302879,-74.721133,-103.63199)" id="layer1-0">
        <g transform="matrix(3.543307,0,0,3.543307,6.5289884,3.3058122)" id="g3006">
          <g id="Camada_x0020_1" inkscapeLabel="Camada 1" inkscapeGroupmode="layer">
            <metadata id="CorelCorpID_0Corel-Layer"></metadata>
            <ellipse cx="108.349" cy="133.493" rx="2.5136001" ry="2.5576501" id="ellipse2995"></ellipse>
            <path d="m 78.1567,138.839 c 0.6609,15.6935 16.1276,21.8201 16.1276,21.8201 6.5778,3.009 11.0675,3.3019 15.238,3.6695 7.0248,0.4124 9.4775,-2.3617 7.6224,-9.1601 -0.2452,-1.364 -0.4169,-2.739 -0.4169,-2.739 -0.8699,-2.9316 -0.4419,-7.5155 -0.4419,-7.5155 0,-3.8806 6.8791,-8.0257 6.8791,-8.0257 10.5833,-8.4667 4.5646,-16.6031 4.5646,-16.6031 -8.1168,-10.7163 -30.3502,-8.0246 -40.8391,0.6944 -2.0071,1.6684 -2.9509,2.8149 -4.3702,4.5123 -2.8471,3.4048 -4.5387,9.1891 -4.3636,13.3471 z m 18.0207,4.2231 c 8.9955,-0.1037 10.3772,14.9482 0.1764,15.2577 -10.3183,-0.7779 -8.3487,-15.1242 -0.1764,-15.2577 z m 11.7299,15.3459 c -3.6768,-0.8944 -2.883,-15.1526 0,-15.2577 3.4402,-0.3245 3.8372,14.8597 0,15.2577 z m 0.0662,-22.2473 c 1.3882,0 2.5136,1.145 2.5136,2.5576 0,1.4127 -1.1254,2.5577 -2.5136,2.5577 -1.3882,0 -2.5136,-1.145 -2.5136,-2.5577 0,-1.4126 1.1254,-2.5576 2.5136,-2.5576 z" id="path2997"></path>
            <path d="m 96.132981,146.89079 c -3.6161,0.1512 -4.0129,8.0154 0.1323,8.0258 4.086899,0.062 4.219199,-8.2431 -0.1323,-8.0258 z" id="path2999"></path>
          </g>
        </g>
      </g>
    </g>
  </symbol>
  <symbol version="1.1" id="omni" sodipodiDocname="omni.svg" inkscapeVersion="1.2.1 (9c6d41e410, 2022-07-14)" xmlnsInkscape="http://www.inkscape.org/namespaces/inkscape" xmlnsSodipodi="http://sodipodi.sourceforge.net/DTD/sodipodi-0.dtd" xmlns="http://www.w3.org/2000/svg" xmlnsSvg="http://www.w3.org/2000/svg" viewBox="0 0 177.778 100">
    <defs id="defs32"></defs>
    <sodipodi:namedview id="namedview30" pagecolor="#ffffff" bordercolor="#000000" borderopacity="0.25" inkscapeShowpageshadow="2" inkscapePageopacity="0.0" inkscapePagecheckerboard="0" inkscapeDeskcolor="#d1d1d1" showgrid="false" inkscapeZoom="5.8468819" inkscapeCx="71.320065" inkscapeCy="46.263975" inkscapeWindowWidth="1920" inkscapeWindowHeight="1012" inkscapeWindowX="0" inkscapeWindowY="32" inkscapeWindowMaximized="1" inkscapeCurrentLayer="g6452"></sodipodi:namedview>
    <g id="g6452" transform="matrix(0.65586586,0,0,0.65586586,16.866729,-42.165807)">
      <g id="g4189" transform="matrix(0.59943109,0,0,0.59943109,103.16418,84.521379)">
        <path d="m -117.84702,81.604766 c -1.40781,-15.466577 12.34866,-30.000037 38.442412,-41.406841 -1.872538,2.65908 -2.18378,4.687951 -2.966054,7.651971 -9.844696,47.511748 75.9492693,77.202774 120.95217,74.545734 -25.934571,7.65847 -149.705408,7.34073 -156.428528,-40.790864" id="path44"></path>
        <path d="m 138.9069,62.541925 c 1.41289,15.466577 -12.34399,30.008168 -38.43672,41.414975 1.87437,-2.66315 2.18134,-4.689986 2.96809,-7.660106 C 113.27768,48.791146 27.489809,19.094017 -17.522443,21.757163 8.4222928,14.101126 132.19211,14.408099 138.9069,62.541925" id="path46"></path>
        <path d="M 71.399194,63.481141 H 59.843986 L 55.62971,87.68731 h 11.242136 l 4.527348,-24.206169" id="path48"></path>
        <path d="m 73.430097,53.178222 c 0,-2.97012 -2.341942,-5.001023 -5.155525,-5.001023 -3.901205,0 -7.182363,3.279126 -7.182363,7.338899 0,2.809517 2.026837,4.844486 4.84042,4.844486 4.069938,0 7.497468,-3.281158 7.497468,-7.182362" id="path50"></path>
        <path d="m 54.385553,69.726321 c 0,-4.842454 -3.748734,-7.02786 -8.280149,-7.02786 -3.124622,0 -5.466564,1.097785 -6.407814,2.030903 L 38.921009,63.481141 H 28.146448 L 23.773602,87.68731 h 11.551143 c 0,0 3.047371,-15.334436 3.331982,-17.109189 0.03863,-0.239887 0.08335,-0.465543 0.134174,-0.683067 0.329335,-1.370199 1.386462,-2.195571 2.596059,-2.195571 1.071357,0 1.947553,0.951414 1.752391,2.197604 -0.04879,0.313072 -0.08132,0.644441 -0.08132,0.644441 L 39.858192,87.68731 h 11.557241 l 2.809518,-16.082557 c 0.160602,-0.784713 0.160602,-1.56536 0.160602,-1.878432" id="path52"></path>
        <path d="m 22.994988,69.415281 c 0,0.624112 -0.156536,1.404759 -0.156536,2.189472 L 20.184657,87.68731 H 9.4092833 L 12.22124,71.129046 c 0,0 0.118317,-0.550925 0.131938,-1.231959 0.03009,-1.457615 -0.600529,-2.197604 -1.695469,-2.197604 -1.4047585,0 -2.6531845,1.089654 -3.1225894,4.210211 L 4.7239757,87.68731 H -5.7344636 l 2.9636141,-16.558264 c 0,-0.309006 0.1549097,-0.931084 0.1549097,-1.248222 0,-1.559262 -0.6210619,-2.181341 -2.0298865,-2.181341 -1.4015061,0 -2.3346238,1.244157 -2.8119571,4.210211 L -10.423024,87.68731 h -10.459252 l 4.212853,-24.206169 h 10.1502461 l 0.6281773,1.248223 c 0.9363703,-0.933118 3.2750598,-2.030903 6.23948712,-2.030903 3.12645228,0 5.31734738,0.941249 6.71824358,2.968086 2.3425522,-1.870301 5.1545089,-2.968086 8.4334319,-2.968086 4.219968,0 7.338289,2.030903 7.494825,6.71682" id="path54"></path>
        <path d="m -34.032729,70.578121 c -1.365117,7.477138 -4.5058,13.657264 -10.407006,13.657264 -4.565365,0 -6.067095,-4.679819 -4.884536,-13.657264 1.446841,-10.983953 7.264494,-14.681864 11.089056,-14.063852 4.873354,0.78878 5.609684,6.354958 4.202486,14.063852 z M -38.85709,52.631362 c -19.113461,0 -22.559897,13.913414 -23.196003,18.082965 -1.833708,10.298854 4.537513,17.397867 16.893088,17.60116 6.303728,0 21.048003,-1.386462 24.045161,-17.7333 0.7345,-5.862988 1.370605,-17.950825 -17.742246,-17.950825" id="path56"></path>
        <path d="m -109.5992,158.85267 c 2.64445,0 3.90141,-1.5493 3.90141,-3.73877 0,-2.19415 -1.35393,-3.74101 -4.06099,-3.74101 h -4.7711 v 7.47978 z m -0.54564,-10.37834 c 2.02969,0 2.99533,-1.12848 2.99533,-2.77313 0,-1.64301 -0.93291,-2.77068 -3.06038,-2.77068 h -4.31999 v 5.54381 z m -7.80058,-8.54239 h 7.96017 c 4.09291,0 6.18785,2.4816 6.18785,5.51129 0,2.09555 -1.06262,3.57735 -2.96524,4.2222 2.93271,0.67656 4.48201,2.77313 4.48201,5.57634 0,3.7713 -2.51413,6.60948 -7.12401,6.60948 h -8.54078 v -21.91931" id="path58"></path>
        <path d="m -94.196657,156.04702 c -1.418176,0 -2.35292,0.51616 -2.35292,1.7097 0,1.15857 0.902217,1.77252 2.578576,1.77252 1.900998,0 3.254934,-0.93556 3.254934,-2.41737 v -1.06485 z m 0.773532,-5.31653 c -1.772517,0 -2.803215,0.77251 -3.546457,1.61028 l -1.868675,-1.90262 c 1.192724,-1.41757 2.804842,-2.41574 5.672502,-2.41574 3.255747,0 5.704825,1.83615 5.704825,5.8329 v 7.99594 h -3.255137 l 0.09778,-1.93779 c -0.968084,1.45172 -2.257779,2.22607 -4.255748,2.22607 -2.674531,0 -4.866239,-1.25636 -4.866239,-4.28747 0,-2.80321 2.257575,-4.02928 5.31816,-4.05957 h 3.706043 c 0,-2.16162 -0.967881,-3.062 -2.707058,-3.062" id="path60"></path>
        <path d="m -83.466414,148.31149 h 3.25412 l -0.06424,2.51495 c 0.837772,-1.77313 2.545845,-2.80403 4.577358,-2.80403 2.997768,0 5.059978,2.12666 5.059978,5.80037 v 8.02847 h -3.254324 v -7.77049 c 0,-1.93291 -0.90364,-3.06363 -2.804639,-3.06363 -2.126654,0 -3.514133,1.29112 -3.514133,3.48303 v 7.35109 h -3.25412 v -13.53976" id="path62"></path>
        <path d="m -67.323683,155.08137 c 0,-4.02927 3.093112,-7.05896 7.218549,-7.05896 2.547472,0 4.191305,0.96565 5.480999,2.57858 l -2.322019,1.86766 c -0.644034,-0.93455 -1.771704,-1.57695 -3.15898,-1.57695 -2.416551,0 -3.865831,1.77231 -3.865831,4.18967 0,2.41737 1.44928,4.18968 3.865831,4.18968 1.611915,0 2.579186,-0.67737 3.321005,-1.51433 l 2.224235,1.93291 c -1.322222,1.51434 -2.933527,2.4499 -5.54524,2.4499 -4.125437,0 -7.218549,-2.99635 -7.218549,-7.05816" id="path64"></path>
        <path d="m -41.05754,155.08137 c 0,-2.48241 -1.514334,-4.22464 -3.931698,-4.22464 -2.416551,0 -3.963412,1.74223 -3.963412,4.22464 0,2.47998 1.546861,4.2525 3.963412,4.2525 2.417364,0 3.931698,-1.77252 3.931698,-4.2525 z m -11.247015,0 c 0,-4.02927 3.221594,-7.05896 7.315317,-7.05896 4.12625,0 7.283603,3.02969 7.283603,7.05896 0,4.02705 -3.157353,7.05816 -7.283603,7.05816 -4.093723,0 -7.315317,-3.03111 -7.315317,-7.05816" id="path66"></path>
        <path d="m -16.791806,144.44261 c 0,-1.28888 -0.8703,-2.09168 -2.09555,-2.09168 -1.257981,0 -2.159995,0.83533 -2.159995,2.12665 0,1.12604 0.516163,1.93292 1.225251,2.80566 l 0.353324,0.41837 c 1.774143,-1.00223 2.67697,-1.96788 2.67697,-3.259 z m -3.933934,6.64201 c -2.35231,1.22363 -3.448876,2.54666 -3.448876,4.60826 0,2.19171 1.418989,3.48059 4.189678,3.48059 1.708886,0 3.25595,-0.57979 4.479574,-1.67473 z m 7.091287,3.7713 c 0.548893,-1.32141 0.870503,-2.90344 0.870503,-4.77191 h 3.0603822 c 0,2.87071 -0.7082752,5.35069 -1.8676582,7.28442 l 3.6418014,4.48282 h -4.0292794 l -1.675749,-2.06403 c -1.7406,1.51453 -3.933121,2.35231 -6.350485,2.35231 -4.832899,0 -7.702185,-2.54768 -7.702185,-6.2212 0,-3.38219 1.965443,-5.0616 5.350891,-6.79996 -1.289695,-1.57959 -1.838384,-3.0614 -1.838384,-4.6107 0,-2.67291 1.999596,-4.83371 5.222816,-4.83371 3.124826,0 5.155525,1.96544 5.155525,4.76865 0,2.1291 -1.384226,3.8388 -4.028669,5.25535 l 4.190491,5.15796" id="path68"></path>
        <path d="M 2.7642254,139.93194 H 16.398314 v 2.99858 H 6.1787447 v 8.79814 h 9.2840123 v 3.02948 H 6.1787447 v 7.09311 H 2.7642254 v -21.91931" id="path70"></path>
        <path d="m 19.841498,148.31149 h 3.287664 v 13.53976 h -3.287664 z m -0.516163,-5.2531 c 0,-1.22363 0.999798,-2.12666 2.159995,-2.12666 1.159993,0 2.160197,0.90303 2.160197,2.12666 0,1.28888 -1.000204,2.16081 -2.160197,2.16081 -1.160197,0 -2.159995,-0.87193 -2.159995,-2.16081" id="path72"></path>
        <path d="m 27.349537,148.31149 h 3.25473 l -0.06505,2.51495 c 0.839603,-1.77313 2.547269,-2.80403 4.578172,-2.80403 2.998581,0 5.059978,2.12666 5.059978,5.80037 v 8.02847 h -3.25473 v -7.77049 c 0,-1.93291 -0.902624,-3.06363 -2.803419,-3.06363 -2.128484,0 -3.514947,1.29112 -3.514947,3.48303 v 7.35109 h -3.25473 v -13.53976" id="path74"></path>
        <path d="m 48.876296,156.04702 c -1.418989,0 -2.35414,0.51616 -2.35414,1.7097 0,1.15857 0.902624,1.77252 2.577763,1.77252 1.902828,0 3.256764,-0.93556 3.256764,-2.41737 v -1.06485 z m 0.772516,-5.31653 c -1.77272,0 -2.803419,0.77251 -3.547473,1.61028 l -1.868269,-1.90262 c 1.193334,-1.41757 2.805452,-2.41574 5.671892,-2.41574 3.256763,0 5.706451,1.83615 5.706451,5.8329 v 7.99594 h -3.25473 l 0.09555,-1.93779 c -0.967678,1.45172 -2.256559,2.22607 -4.254935,2.22607 -2.673311,0 -4.864816,-1.25636 -4.864816,-4.28747 0,-2.80321 2.256559,-4.02928 5.316127,-4.05957 h 3.708076 c 0,-2.16162 -0.967678,-3.062 -2.707871,-3.062" id="path76"></path>
        <path d="m 59.604099,148.31149 h 3.256764 l -0.06505,2.51495 c 0.83757,-1.77313 2.545236,-2.80403 4.576139,-2.80403 2.998581,0 5.062011,2.12666 5.062011,5.80037 v 8.02847 h -3.256764 v -7.77049 c 0,-1.93291 -0.902623,-3.06363 -2.803419,-3.06363 -2.126451,0 -3.512913,1.29112 -3.512913,3.48303 v 7.35109 h -3.256764 v -13.53976" id="path78"></path>
        <path d="m 75.749677,155.08137 c 0,-4.02927 3.094129,-7.05896 7.220989,-7.05896 2.545236,0 4.189881,0.96565 5.478762,2.57858 l -2.321613,1.86766 c -0.64444,-0.93455 -1.770687,-1.57695 -3.157149,-1.57695 -2.417161,0 -3.868677,1.77231 -3.868677,4.18967 0,2.41737 1.451516,4.18968 3.868677,4.18968 1.610085,0 2.577763,-0.67737 3.317751,-1.51433 l 2.226065,1.93291 c -1.321408,1.51434 -2.933526,2.4499 -5.543816,2.4499 -4.12686,0 -7.220989,-2.99635 -7.220989,-7.05816" id="path80"></path>
        <path d="m 101.69197,153.92037 c -0.28867,-1.83758 -1.41695,-3.18988 -3.673512,-3.18988 -2.095957,0 -3.54544,1.15938 -3.931698,3.18988 z m -3.319781,5.48099 c 1.772721,0 3.063631,-0.71152 3.836151,-1.45172 l 1.90079,1.99797 c -1.25635,1.25636 -2.99654,2.19192 -5.704414,2.19192 -4.641193,0 -7.637741,-2.99635 -7.637741,-7.05816 0,-4.02927 3.15715,-7.05896 7.218956,-7.05896 4.608669,0 7.220989,3.41554 6.993299,8.15492 H 94.08676 c 0.386258,1.96544 1.803214,3.22403 4.285429,3.22403" id="path82"></path>
        <path d="m 108.52264,148.31149 h 3.28726 v 13.53976 h -3.28726 z m -0.51637,-5.2531 c 0,-1.22363 1.00021,-2.12666 2.16101,-2.12666 1.15878,0 2.15898,0.90303 2.15898,2.12666 0,1.28888 -1.0002,2.16081 -2.15898,2.16081 -1.1608,0 -2.16101,-0.87193 -2.16101,-2.16081" id="path84"></path>
        <path d="m 116.02824,148.31149 h 3.25473 l -0.0325,2.54524 c 0.90263,-2.12665 2.44969,-2.80322 3.93373,-2.80322 0.96565,0 1.64262,0.2279 2.22403,0.58122 l -1.09575,2.93353 c -0.51636,-0.25818 -1.03273,-0.45355 -1.77272,-0.45355 -1.93535,0 -3.25676,1.13092 -3.25676,4.15959 v 6.57695 h -3.25473 v -13.53976" id="path86"></path>
        <path d="m 132.2714,156.04702 c -1.41899,0 -2.35414,0.51616 -2.35414,1.7097 0,1.15857 0.90262,1.77252 2.57776,1.77252 1.90283,0 3.25676,-0.93556 3.25676,-2.41737 v -1.06485 z m 0.77251,-5.31653 c -1.77272,0 -2.80342,0.77251 -3.54544,1.61028 l -1.86827,-1.90262 c 1.1913,-1.41757 2.80342,-2.41574 5.6719,-2.41574 3.25473,0 5.70441,1.83615 5.70441,5.8329 v 7.99594 h -3.25473 l 0.0956,-1.93779 c -0.96768,1.45172 -2.25656,2.22607 -4.2529,2.22607 -2.67534,0 -4.86685,-1.25636 -4.86685,-4.28747 0,-2.80321 2.25656,-4.02928 5.31613,-4.05957 h 3.70807 c 0,-2.16162 -0.96767,-3.062 -2.70787,-3.062" id="path88"></path>
      </g>
    </g>
  </symbol>
  <symbol version="1.1" id="pagol" sodipodiDocname="pagol.svg" inkscapeVersion="1.2.1 (9c6d41e410, 2022-07-14)" xmlnsInkscape="http://www.inkscape.org/namespaces/inkscape" xmlnsSodipodi="http://sodipodi.sourceforge.net/DTD/sodipodi-0.dtd" xmlns="http://www.w3.org/2000/svg" xmlnsSvg="http://www.w3.org/2000/svg" viewBox="0 0 177.778 100">
    <defs id="defs32"></defs>
    <sodipodi:namedview id="namedview30" pagecolor="#ffffff" bordercolor="#000000" borderopacity="0.25" inkscapeShowpageshadow="2" inkscapePageopacity="0.0" inkscapePagecheckerboard="0" inkscapeDeskcolor="#d1d1d1" showgrid="false" inkscapeZoom="5.8468819" inkscapeCx="69.182174" inkscapeCy="50.368727" inkscapeWindowWidth="1920" inkscapeWindowHeight="1012" inkscapeWindowX="0" inkscapeWindowY="32" inkscapeWindowMaximized="1" inkscapeCurrentLayer="g6452"></sodipodi:namedview>
    <g id="g6452" transform="matrix(0.65586586,0,0,0.65586586,16.866729,-42.165807)">
      <g id="g14" transform="matrix(0.72736476,0,0,0.72736476,15.720596,93.18122)">
        <path d="m 56.62,40.55 c 2.9,1.66 5.06,3.88 6.5,6.66 1.43,2.79 2.15,5.89 2.15,9.31 0,3.42 -0.7,6.57 -2.11,9.43 -1.41,2.87 -3.56,5.17 -6.46,6.91 -2.9,1.74 -6.5,2.61 -10.8,2.61 H 35.56 V 94.01 H 24.55 V 38.06 h 21.43 c 4.2,0 7.74,0.83 10.64,2.49 z m -2.77,15.97 c 0,-2.59 -0.77,-4.59 -2.32,-6 -1.55,-1.41 -3.86,-2.11 -6.95,-2.11 h -9.02 v 16.72 h 9.02 c 6.17,-0.01 9.27,-2.87 9.27,-8.61 z" id="path4"></path>
        <path d="m 102.71,55.4 c 3.23,2.9 4.84,7.44 4.84,13.61 V 94 h -9.02 l -0.58,-4.55 c -1.82,1.71 -3.78,3.04 -5.88,3.97 -2.1,0.94 -4.47,1.41 -7.12,1.41 -4.03,0 -7.15,-1.14 -9.35,-3.43 -2.21,-2.29 -3.31,-5.42 -3.31,-9.39 0,-3.59 1.21,-6.48 3.64,-8.69 2.43,-2.21 5.76,-3.53 10.01,-3.97 l 11.42,-1.16 c -0.22,-2.76 -1.08,-4.79 -2.57,-6.08 -1.49,-1.29 -3.72,-1.94 -6.7,-1.94 -4.08,0 -8.22,0.61 -12.41,1.82 v -8.77 c 4.85,-1.43 9.38,-2.15 13.57,-2.15 5.75,-0.01 10.24,1.43 13.46,4.33 z M 86.95,86.31 c 1.6,0 3.31,-0.34 5.13,-1.03 1.82,-0.69 3.61,-1.7 5.38,-3.02 v -6.79 l -10.51,1.24 c -1.66,0.22 -2.95,0.74 -3.89,1.57 -0.94,0.83 -1.41,1.9 -1.41,3.23 0,3.2 1.77,4.8 5.3,4.8 z" id="path6"></path>
        <path d="m 162.59,62.81 v 28.3 c -5.63,2.54 -11.83,3.81 -18.62,3.81 -5.52,0 -10.26,-1.17 -14.23,-3.52 -3.97,-2.34 -6.99,-5.53 -9.06,-9.56 -2.07,-4.03 -3.1,-8.55 -3.1,-13.57 v -3.39 c 0,-5.24 1.17,-9.97 3.52,-14.19 2.35,-4.22 5.59,-7.53 9.72,-9.93 4.14,-2.4 8.83,-3.6 14.07,-3.6 2.7,0 5.12,0.22 7.24,0.66 2.12,0.44 4.51,1.16 7.16,2.15 v 9.93 c -2.43,-0.83 -4.68,-1.42 -6.75,-1.78 -2.07,-0.36 -4.29,-0.54 -6.66,-0.54 -5.19,0 -9.35,1.52 -12.5,4.55 -3.14,3.04 -4.72,7.39 -4.72,13.08 v 1.99 c 0,5.41 1.45,9.68 4.35,12.83 2.9,3.15 6.99,4.72 12.29,4.72 2.37,0 4.74,-0.22 7.12,-0.66 V 72.41 h -10.26 v -9.6 z" id="path8"></path>
        <path d="m 181.62,92.31 c -3.09,-1.79 -5.48,-4.23 -7.16,-7.32 -1.68,-3.09 -2.52,-6.59 -2.52,-10.51 v -2.23 c 0,-3.81 0.84,-7.34 2.52,-10.59 1.68,-3.25 4.08,-5.83 7.2,-7.74 3.12,-1.9 6.69,-2.86 10.72,-2.86 4.14,0 7.75,0.9 10.84,2.69 3.09,1.79 5.48,4.24 7.16,7.32 1.68,3.09 2.52,6.59 2.52,10.51 v 2.15 c 0,3.86 -0.86,7.42 -2.57,10.68 -1.71,3.26 -4.12,5.83 -7.24,7.74 -3.12,1.9 -6.69,2.86 -10.72,2.86 -4.08,-0.01 -7.66,-0.91 -10.75,-2.7 z m 17.92,-10.18 c 1.74,-2.07 2.61,-4.9 2.61,-8.48 v -1.32 c 0,-3.59 -0.84,-6.4 -2.52,-8.44 -1.68,-2.04 -4.04,-3.06 -7.08,-3.06 -3.04,0 -5.44,1.05 -7.2,3.14 -1.77,2.1 -2.65,4.88 -2.65,8.36 v 1.32 c 0,3.64 0.84,6.48 2.52,8.52 1.68,2.04 4.07,3.06 7.16,3.06 3.03,0 5.42,-1.03 7.16,-3.1 z" id="path10"></path>
        <path d="m 223.25,35.17 h 10.92 v 58.84 h -10.92 z" id="path12"></path>
      </g>
    </g>
  </symbol>
  <symbol version="1.1" id="smiles" sodipodiDocname="smiles.svg" inkscapeVersion="1.2.1 (9c6d41e410, 2022-07-14)" xmlnsInkscape="http://www.inkscape.org/namespaces/inkscape" xmlnsSodipodi="http://sodipodi.sourceforge.net/DTD/sodipodi-0.dtd" xmlns="http://www.w3.org/2000/svg" xmlnsSvg="http://www.w3.org/2000/svg" viewBox="0 0 177.778 100">
    <defs id="defs32"></defs>
    <sodipodi:namedview id="namedview30" pagecolor="#ffffff" bordercolor="#000000" borderopacity="0.25" inkscapeShowpageshadow="2" inkscapePageopacity="0.0" inkscapePagecheckerboard="0" inkscapeDeskcolor="#d1d1d1" showgrid="false" inkscapeZoom="5.8468819" inkscapeCx="72.517285" inkscapeCy="50.197696" inkscapeWindowWidth="1920" inkscapeWindowHeight="1012" inkscapeWindowX="0" inkscapeWindowY="32" inkscapeWindowMaximized="1" inkscapeCurrentLayer="svg28"></sodipodi:namedview>
    <path d="m 91.056515,33.979556 c 1.41376,0 2.56307,-1.149305 2.56307,-2.563103 0,-1.413797 -1.14931,-2.558295 -2.56307,-2.558295 -1.41386,0 -2.55838,1.144498 -2.56317,2.558295 0,1.413798 1.14931,2.563103 2.56317,2.563103 m 10.223585,22.59665 h 0.0197 c 0.98584,0 1.861,-0.250059 2.53907,-0.572254 0.68286,-0.326996 1.16371,-0.702089 1.40894,-1.038707 0.14908,-0.221194 0.24523,-0.485685 0.24523,-0.76941 0,-0.211585 -0.0481,-0.427976 -0.14908,-0.644374 -0.25003,-0.495319 -0.77901,-0.735752 -1.24546,-0.745372 -0.0862,0 -0.17309,0.0098 -0.25483,0.02877 -0.25483,0.07219 -0.43284,0.158689 -0.61073,0.216398 -0.18268,0.06254 -0.3751,0.105743 -0.70688,0.105743 -0.54338,0 -0.87047,-0.211572 -1.08678,-0.427975 -0.0382,-0.04331 -0.3703,-0.456837 -0.49538,-0.976189 -0.20189,-0.855967 -0.21641,-2.077412 -0.22602,-2.933376 0.0148,-0.312578 0.0148,-17.581054 0.0148,-18.047507 0,-0.639577 -0.32697,-1.154123 -0.783822,-1.457072 -0.45685,-0.312577 -1.03384,-0.452034 -1.606163,-0.452034 -0.5818,0 -1.16852,0.144271 -1.63017,0.452034 -0.46644,0.298134 -0.81262,0.798259 -0.80781,1.428215 v 20.442291 c 0,1.139697 0.32216,2.476548 1.16851,3.544113 0.84155,1.067559 2.216893,1.846585 4.207765,1.846585 m 9.88208,-16.835676 c 1.21185,-1.731185 2.48132,-1.93796 3.07764,-1.942779 v 0 c 0.97623,0.0098 1.96687,0.644388 2.25051,2.163975 0.0479,0.254877 0.0676,0.50493 0.0676,0.745363 0,1.048338 -0.40391,1.957205 -1.00984,2.649669 -1.44747,1.606136 -3.46235,2.062986 -5.5927,2.288988 0,-0.187533 0,-0.379881 0,-0.572243 0,-1.875443 0.25496,-3.991316 1.20706,-5.332973 m -3.19793,14.387987 c 1.58697,1.505156 3.75092,2.42365 6.45827,2.42365 h 0.0123 c 1.47148,0 2.83709,-0.254867 3.86146,-0.67805 0.50965,-0.216399 0.9377,-0.471267 1.25507,-0.774218 0.31256,-0.302957 0.52418,-0.673239 0.52418,-1.086797 0,-0.06254 0,-0.129832 -0.0197,-0.197167 -0.10095,-0.702075 -0.67807,-1.178153 -1.33214,-1.163722 -0.16348,0 -0.32697,0.02403 -0.49045,0.07692 -0.80314,0.254859 -1.57735,0.394312 -2.52466,0.394312 -0.26922,0 -0.54338,-0.0098 -0.84155,-0.03361 -2.00046,-0.158685 -3.17859,-1.360889 -3.89026,-2.591946 -0.35109,-0.610733 -0.58193,-1.226263 -0.7166,-1.697522 -0.0628,-0.206779 -0.10587,-0.389507 -0.13454,-0.528972 2.73614,-0.115354 5.10211,-0.43279 7.3382,-1.615766 1.14452,-0.639568 2.55827,-1.673463 3.28927,-3.111298 0.45684,-0.932918 0.69727,-2.005285 0.69727,-2.976668 0,-0.307768 -0.0246,-0.60591 -0.0727,-0.884816 -0.46644,-2.635233 -2.91415,-4.635704 -6.70348,-4.626093 -2.63532,0 -6.02553,1.038709 -8.09334,4.236586 -0.79342,1.245466 -1.86099,3.635461 -1.86099,6.655403 0,0.721312 0.0628,1.476296 0.20202,2.260136 0.45684,2.327479 1.46187,4.409689 3.04391,5.919665 m -46.885966,1.678281 c 0.456844,0.312573 1.033965,0.452036 1.60616,0.452036 0.581929,0 1.168522,-0.144271 1.634975,-0.452036 0.461644,-0.298156 0.807936,-0.803084 0.803135,-1.428228 0,0 0,-11.180511 0,-11.233406 v 0 c 0.02835,-0.865579 0.25963,-2.024509 0.774211,-2.933376 0.519383,-0.913682 1.26467,-1.558065 2.438117,-1.562862 0.538581,0.0049 0.908761,0.173107 1.211725,0.442401 0.452049,0.408752 0.716604,1.091608 0.855962,1.784072 0.134675,0.692477 0.149072,1.380143 0.149072,1.76965 0,0.0913 0,11.401716 0,11.704664 0,0.649207 0.3511,1.163743 0.831956,1.461886 0.485774,0.307772 1.091579,0.447235 1.697507,0.447235 0.61553,0 1.235856,-0.144271 1.731233,-0.447235 0.485657,-0.298143 0.860749,-0.798256 0.855955,-1.433029 V 43.135462 c 0.03318,-0.860787 0.264437,-2.019712 0.774211,-2.923764 0.524184,-0.913683 1.269462,-1.558065 2.438112,-1.562863 0.53859,0.0049 0.9137,0.173108 1.21654,0.442402 0.44723,0.408752 0.71659,1.096423 0.85126,1.788886 0.13936,0.692477 0.15389,1.375328 0.15389,1.764835 0,0.0913 0,10.983353 0,11.704665 0,0.649204 0.35578,1.163746 0.83663,1.461883 0.48098,0.307772 1.0917,0.447235 1.69751,0.447235 0.61552,0 1.23598,-0.144271 1.72643,-0.447235 0.49046,-0.298137 0.86555,-0.798256 0.86076,-1.433027 V 43.347046 c 0,-2.793931 -0.5482,-4.876141 -1.57244,-6.285124 -1.02916,-1.408987 -2.54865,-2.096649 -4.33762,-2.091834 -1.72632,0 -3.04392,0.831921 -3.967213,1.784071 -0.63486,0.653995 -1.091586,1.360889 -1.394543,1.918719 -0.428043,-1.120461 -1.033971,-1.995656 -1.808182,-2.611182 -0.928097,-0.73576 -2.087017,-1.091608 -3.385405,-1.091608 -2.212089,0.0049 -3.726785,1.351268 -4.654882,2.59195 v -0.110666 c 0,-0.644387 -0.322287,-1.154123 -0.779137,-1.457072 -0.456719,-0.312582 -1.029039,-0.452035 -1.601235,-0.452035 -0.586723,0 -1.17344,0.144272 -1.635092,0.452035 -0.466445,0.298151 -0.807819,0.798267 -0.807819,1.428215 0,0 0,16.460598 0,16.927051 0,0.63958 0.322162,1.15411 0.779012,1.45708 M 92.670255,35.9943 c -0.45685,-0.312582 -1.02905,-0.452035 -1.60617,-0.452035 -0.58191,0 -1.16852,0.144272 -1.63016,0.452035 -0.46645,0.298151 -0.80794,0.798267 -0.80794,1.428215 0,0 0,16.460598 0,16.927051 0,0.63958 0.32229,1.15411 0.77913,1.45708 0.45673,0.31256 1.03384,0.452036 1.60604,0.452036 0.58192,0 1.16864,-0.144271 1.63029,-0.452036 0.46645,-0.298156 0.81262,-0.803083 0.80782,-1.428227 0,0 0,-16.460585 0,-16.927047 0,-0.644387 -0.32217,-1.154123 -0.77901,-1.457072 m 50.098285,8.728005 c -0.0197,-0.115345 -0.096,-0.211585 -0.20682,-0.245247 -0.1108,-0.03356 -0.23082,-0.0049 -0.31257,0.08174 0,0 -0.0677,0.07692 -0.21149,0.221205 -0.13948,0.144251 -0.3559,0.360663 -0.63966,0.629957 -0.5722,0.548205 -1.43295,1.332046 -2.57266,2.269769 -0.80795,0.668413 -1.76005,1.413776 -2.85163,2.212042 -0.0246,-0.317374 -0.0726,-0.615529 -0.13948,-0.894435 -0.28856,-1.173357 -0.97623,-2.062978 -1.81298,-2.774687 -1.26465,-1.067566 -2.88522,-1.769654 -4.21243,-2.534249 -0.66846,-0.38471 -1.25519,-0.779022 -1.6927,-1.221445 -0.43764,-0.44722 -0.7166,-0.928108 -0.80315,-1.524394 -0.0197,-0.110548 -0.0246,-0.226015 -0.0246,-0.341416 0,-0.615531 0.23562,-1.259914 0.73568,-1.745612 0.26936,-0.259674 1.07238,-0.783841 2.20729,-0.783841 1.40895,0 2.6016,0.615531 3.27006,0.615531 0.75488,0.01436 1.40894,-0.427984 1.60603,-1.15893 0.0382,-0.144267 0.0579,-0.293336 0.0579,-0.437604 0,-0.831921 -0.69247,-1.606136 -1.63497,-1.841772 0,0 -0.85115,-0.288531 -2.6496,-0.288531 -2.50545,0.0049 -4.55885,0.620336 -6.00141,1.702328 -1.44268,1.081979 -2.25542,2.640039 -2.25542,4.428912 0,0.490504 0.0627,1.00024 0.18282,1.519601 0.54338,2.207245 2.71694,3.404634 4.7222,4.47701 1.00985,0.533779 1.99568,1.038708 2.73136,1.582099 0.7454,0.548213 1.21665,1.115646 1.31772,1.779274 0.0148,0.115345 0.0234,0.226002 0.0234,0.336598 0,0.605919 -0.24522,1.16855 -0.76461,1.606159 -0.52418,0.437596 -1.35133,0.745358 -2.51984,0.764595 h -0.1108 c -1.2744,0.0049 -2.36598,-0.365469 -3.08245,-0.678046 -0.31256,-0.149069 -0.63486,-0.221196 -0.9377,-0.221196 -0.7598,-0.0098 -1.39467,0.509735 -1.49561,1.26472 -0.0123,0.07219 -0.0148,0.144267 -0.0148,0.21639 0,0.543407 0.28857,0.990625 0.68288,1.336857 0.59633,0.519351 1.44267,0.870399 2.2457,1.106029 -8.85784,4.428919 -21.15882,8.429855 -36.715355,8.429855 v 0.0052 -0.0052 c -15.705582,0 -28.097905,-4.077872 -36.970265,-8.559696 1.827387,-0.346227 3.303667,-1.08199 4.404972,-2.082221 1.558031,-1.408978 2.351447,-3.327697 2.346646,-5.318552 0,-0.452035 -0.03808,-0.913681 -0.120643,-1.375328 -0.278841,-1.529204 -1.11079,-2.741028 -2.183158,-3.731643 -1.606167,-1.490735 -3.75571,-2.534249 -5.549364,-3.582578 -0.894489,-0.524153 -1.702308,-1.04832 -2.298634,-1.606137 -0.601179,-0.557825 -0.985875,-1.144498 -1.101234,-1.803312 -0.03331,-0.177922 -0.05298,-0.365468 -0.05298,-0.553019 0,-0.846348 0.32697,-1.7504 1.048368,-2.442872 0.716473,-0.692469 1.836983,-1.192593 3.486354,-1.197398 0.894489,0 1.94274,0.149077 3.154596,0.500115 0.351093,0.100946 0.673256,0.153883 0.971419,0.153883 0.831831,0.01436 1.452287,-0.44722 1.702308,-1.106025 0.0911,-0.235631 0.139482,-0.471267 0.139482,-0.697278 0,-0.56745 -0.298156,-1.043523 -0.716597,-1.380125 -0.418323,-0.336621 -0.956904,-0.562644 -1.524416,-0.682865 -1.129995,-0.22602 -2.356248,-0.379904 -3.645048,-0.3847 -0.01235,0 -0.02345,0 -0.03318,0 -3.443144,0 -5.943799,0.966568 -7.578773,2.409222 -1.639769,1.437835 -2.399577,3.342123 -2.399577,5.159867 0,0.403932 0.03815,0.803064 0.110793,1.192588 0.504986,2.654469 2.702678,4.35197 4.943567,5.727299 2.250505,1.370509 4.597144,2.481349 5.486831,3.736456 0.485651,0.668418 0.716473,1.476296 0.716473,2.255339 0,0.793453 -0.245232,1.548436 -0.692467,2.087029 -0.846353,1.019463 -2.442793,1.70713 -4.159629,1.70713 -1.086771,0 -2.212082,-0.269295 -3.241128,-0.880028 -0.05794,-0.0384 -0.211611,-0.120269 -0.226021,-0.129824 -2.466923,-1.601348 -4.452985,-3.111315 -5.953277,-4.347169 -1.139715,-0.937723 -1.995664,-1.721564 -2.56799,-2.26977 -0.28843,-0.269294 -0.504849,-0.485706 -0.644338,-0.629956 -0.144277,-0.144267 -0.211611,-0.221205 -0.211611,-0.221205 -0.08125,-0.08657 -0.201891,-0.115355 -0.312573,-0.08174 -0.105868,0.03378 -0.187488,0.129832 -0.201891,0.245247 -0.06271,0.427999 -0.105868,0.966577 -0.105868,1.591719 0,0.04816 0,0.09612 0,0.144272 v 0.04331 c 0.02959,1.620577 0.577115,2.870879 2.053402,4.236573 0.355908,0.360671 20.158583,20.495201 51.925671,20.500002 31.771895,-0.0052 51.569765,-20.139331 51.925665,-20.500001 1.47629,-1.365694 2.02447,-2.615997 2.05328,-4.236573 v -0.187533 c 0,-0.625152 -0.0431,-1.163736 -0.10094,-1.591729" id="path9955" inkscapeConnectorCurvature="0"></path>
  </symbol>
  <symbol version="1.1" id="vivo" sodipodiDocname="vivo.svg" inkscapeVersion="1.2.1 (9c6d41e410, 2022-07-14)" xmlnsInkscape="http://www.inkscape.org/namespaces/inkscape" xmlnsSodipodi="http://sodipodi.sourceforge.net/DTD/sodipodi-0.dtd" xmlns="http://www.w3.org/2000/svg" xmlnsSvg="http://www.w3.org/2000/svg" viewBox="0 0 177.778 100">
    <defs id="defs32"></defs>
    <sodipodi:namedview id="namedview30" pagecolor="#ffffff" bordercolor="#000000" borderopacity="0.25" inkscapeShowpageshadow="2" inkscapePageopacity="0.0" inkscapePagecheckerboard="0" inkscapeDeskcolor="#d1d1d1" showgrid="false" inkscapeZoom="5.8468819" inkscapeCx="72.517285" inkscapeCy="50.197696" inkscapeWindowWidth="1920" inkscapeWindowHeight="1012" inkscapeWindowX="0" inkscapeWindowY="32" inkscapeWindowMaximized="1" inkscapeCurrentLayer="g11139"></sodipodi:namedview>
    <g id="g6452" transform="matrix(0.65586586,0,0,0.65586586,16.866729,-42.165807)">
      <g transform="matrix(0.49302879,0,0,0.49302879,-74.721133,-103.63199)" id="layer1-0">
        <g transform="matrix(3.543307,0,0,3.543307,6.5289884,3.3058122)" id="g3006">
          <g id="Camada_x0020_1" inkscapeLabel="Camada 1" inkscapeGroupmode="layer">
            <metadata id="CorelCorpID_0Corel-Layer"></metadata>
            <g id="g11139" transform="matrix(0.18509206,0,0,0.18509206,46.401575,120.9388)">
              <g id="g11137">
                <path d="M 540,1.29 A 36.41,36.41 0 0 1 583.92,24 c 4.56,12.55 1.26,27.5 -7.9,37.15 -3.08,3.38 -7.31,5.34 -10.69,8.34 -2.29,1.88 -1.47,5.93 1.2,7 1.81,1 3.88,0.17 5.77,-0.12 9.79,-2.27 19.54,-4.74 29.34,-7 a 13.42,13.42 0 0 1 15.22,7.74 c 1.26,3.76 2,7.67 2.93,11.54 1.52,6.56 -2.74,13.86 -9.3,15.55 -9.92,2.61 -20,4.78 -29.89,7.35 -3.49,0.86 -6.86,3.4 -7.44,7.15 -0.76,3.38 1.2,6.56 3.22,9.11 q 15.15,18.86 30.3,37.71 a 13.55,13.55 0 0 1 2.39,13.07 c -1.75,5.31 -7,8 -11,11.53 -5.26,4.71 -14.24,4.2 -18.77,-1.27 -8.06,-9.62 -15.85,-19.47 -23.8,-29.18 -1.7,-2.05 -4.23,-4.13 -7.08,-3.4 a 11.79,11.79 0 0 0 -5.1,4 c -7.29,9.1 -14.7,18.11 -22,27.18 a 13.65,13.65 0 0 1 -12.7,5.8 c -5.63,-0.38 -9.3,-5.12 -13.56,-8.19 -6,-4.29 -7.19,-13.71 -2.45,-19.36 10,-12.59 20.16,-25.12 30.24,-37.66 2.16,-2.64 4.13,-5.91 3.36,-9.47 -0.49,-3.79 -4.07,-6.18 -7.5,-7.07 -9.73,-2.45 -19.5,-4.68 -29.22,-7.13 a 13.46,13.46 0 0 1 -10,-14.77 c 0.71,-3.89 1.69,-7.73 2.74,-11.54 a 13.31,13.31 0 0 1 15.28,-8.76 c 10.73,2.35 21.34,5.28 32.1,7.47 4,1.45 7.61,-3.86 4.86,-7 -2.76,-2.68 -6.37,-4.28 -9.15,-6.93 C 512.2,51.41 509.6,29.92 519.74,15.74 A 36.67,36.67 0 0 1 540,1.29 Z" id="path11125"></path>
                <path d="m 154.92,15.25 c 10.39,-3.94 23,1.47 27.35,11.69 A 21.93,21.93 0 0 1 157.8,57.44 21.89,21.89 0 0 1 140.57,38.72 c -1.51,-9.93 4.87,-20.25 14.35,-23.47 z" id="path11127"></path>
                <path d="m 9.68,72.57 c 5.78,-2.08 11.42,-6.76 17.89,-4.93 a 13.54,13.54 0 0 1 9,8.16 c 9.28,18.66 18.48,37.36 27.8,56 9.33,-19.07 18.93,-38 28.26,-57.07 2.48,-5.41 9,-8.76 14.79,-7.13 3.48,1 6.65,2.88 10,4.25 3.35,1.37 7,2.7 9,5.83 A 12.28,12.28 0 0 1 127,91 c -14.72,26.3 -29.57,52.52 -44.3,78.8 a 16,16 0 0 1 -7.55,7.2 c -4.61,2 -9.75,0.93 -14.62,1.23 a 15.06,15.06 0 0 1 -14,-7.59 Q 25.08,132.64 3.67,94.53 C 1.74,91.22 -0.39,87.68 0.06,83.68 0.28,78.25 4.81,74.2 9.68,72.57 Z" id="path11129"></path>
                <path d="m 209.65,70.74 c 4.74,-2.27 10.19,-5.1 15.44,-2.54 6.09,2.28 7.87,9 10.62,14.23 8.33,16.36 16.13,33 24.62,49.26 q 14,-28.47 28.2,-56.89 c 2.43,-5.5 9.06,-8.88 14.91,-7.17 3.43,1.07 6.57,2.86 9.88,4.22 3.06,1.4 6.53,2.47 8.64,5.28 a 12.43,12.43 0 0 1 0.91,14 q -22.31,39.62 -44.62,79.24 a 15,15 0 0 1 -13.67,7.87 c -5.51,-0.32 -11.53,1.07 -16.53,-1.94 -3.13,-1.58 -5.16,-4.54 -6.76,-7.54 Q 219.62,130.09 197.84,91.49 a 12.39,12.39 0 0 1 0,-13.31 c 2.52,-4.28 7.68,-5.33 11.81,-7.44 z" id="path11131"></path>
                <path d="m 375.12,68.58 c 11.45,-2 23.61,-0.83 34.14,4.27 a 55.58,55.58 0 1 1 -34.14,-4.27 z m 7.49,33.19 a 22,22 0 0 0 -16,11 21.88,21.88 0 0 0 20,32.62 c 11.58,-0.12 21.72,-11 20.83,-22.61 0.12,-12.56 -12.53,-23.18 -24.83,-21.01 z" id="path11133"></path>
                <path d="m 153.89,69.07 c 4.87,-0.37 9.76,-0.08 14.64,-0.17 7.23,-0.23 13.23,6.59 13.08,13.64 0.15,26.7 0,53.4 0.07,80.11 0.21,5 -1.63,10.33 -6,13.19 -5,3.63 -11.46,2 -17.19,2.38 a 13.93,13.93 0 0 1 -13.7,-7 c -2,-3.49 -1.67,-7.63 -1.68,-11.5 q 0,-38.49 0,-77 a 13.64,13.64 0 0 1 10.78,-13.65 z" id="path11135"></path>
              </g>
            </g>
          </g>
        </g>
      </g>
    </g>
  </symbol>
</svg>