<?xml version="1.0" encoding="UTF-8" standalone="no"?>
<!-- Created with Inkscape (http://www.inkscape.org/) -->

<svg
   width="141.5248mm"
   height="35.406002mm"
   viewBox="0 0 141.5248 35.406002"
   version="1.1"
   id="svg11482"
   inkscape:export-filename="../logo-light.png"
   inkscape:export-xdpi="14.913669"
   inkscape:export-ydpi="14.913669"
   inkscape:version="1.2.1 (9c6d41e410, 2022-07-14)"
   sodipodi:docname="logo-light.svg"
   xmlns:inkscape="http://www.inkscape.org/namespaces/inkscape"
   xmlns:sodipodi="http://sodipodi.sourceforge.net/DTD/sodipodi-0.dtd"
   xmlns="http://www.w3.org/2000/svg"
   xmlns:svg="http://www.w3.org/2000/svg">
  <sodipodi:namedview
     id="namedview11484"
     pagecolor="#ffffff"
     bordercolor="#000000"
     borderopacity="0.25"
     inkscape:showpageshadow="2"
     inkscape:pageopacity="0.0"
     inkscape:pagecheckerboard="0"
     inkscape:deskcolor="#d1d1d1"
     inkscape:document-units="mm"
     showgrid="false"
     inkscape:zoom="1.0670983"
     inkscape:cx="265.67374"
     inkscape:cy="133.53971"
     inkscape:window-width="1920"
     inkscape:window-height="1012"
     inkscape:window-x="0"
     inkscape:window-y="32"
     inkscape:window-maximized="1"
     inkscape:current-layer="layer1">
    <sodipodi:guide
       position="-45.820115,35.406007"
       orientation="0,708.07525"
       id="guide17617"
       inkscape:locked="false" />
    <sodipodi:guide
       position="141.5248,35.406007"
       orientation="173.30167,0"
       id="guide17619"
       inkscape:locked="false" />
    <sodipodi:guide
       position="141.5248,-10.446727"
       orientation="0,-708.07525"
       id="guide17621"
       inkscape:locked="false" />
    <sodipodi:guide
       position="-45.820115,-10.446727"
       orientation="-173.30167,0"
       id="guide17623"
       inkscape:locked="false" />
  </sodipodi:namedview>
  <defs
     id="defs11479">
    <linearGradient
       x1="0"
       y1="0"
       x2="1"
       y2="0"
       gradientUnits="userSpaceOnUse"
       gradientTransform="matrix(21.37623,37.024715,37.024715,-21.37623,112.88927,90.677978)"
       spreadMethod="pad"
       id="linearGradient7493">
      <stop
         style="stop-opacity:1;stop-color:#113e74"
         offset="0"
         id="stop7487" />
      <stop
         style="stop-opacity:1;stop-color:#2270c1"
         offset="0.89544754"
         id="stop7489" />
      <stop
         style="stop-opacity:1;stop-color:#2270c1"
         offset="1"
         id="stop7491" />
    </linearGradient>
    <linearGradient
       x1="0"
       y1="0"
       x2="1"
       y2="0"
       gradientUnits="userSpaceOnUse"
       gradientTransform="matrix(17.33464,17.33464,17.33464,-17.33464,150.65956,102.16924)"
       spreadMethod="pad"
       id="linearGradient7515">
      <stop
         style="stop-opacity:1;stop-color:#31ad3d"
         offset="0"
         id="stop7509" />
      <stop
         style="stop-opacity:1;stop-color:#31ad3d"
         offset="0.30840837"
         id="stop7511" />
      <stop
         style="stop-opacity:1;stop-color:#80cc28"
         offset="1"
         id="stop7513" />
    </linearGradient>
    <linearGradient
       x1="0"
       y1="0"
       x2="1"
       y2="0"
       gradientUnits="userSpaceOnUse"
       gradientTransform="matrix(14.764113,14.764113,14.764113,-14.764113,107.19406,67.029121)"
       spreadMethod="pad"
       id="linearGradient7537">
      <stop
         style="stop-opacity:1;stop-color:#31ad3d"
         offset="0"
         id="stop7531" />
      <stop
         style="stop-opacity:1;stop-color:#31ad3d"
         offset="0.30840837"
         id="stop7533" />
      <stop
         style="stop-opacity:1;stop-color:#80cc28"
         offset="1"
         id="stop7535" />
    </linearGradient>
    <linearGradient
       x1="0"
       y1="0"
       x2="1"
       y2="0"
       gradientUnits="userSpaceOnUse"
       gradientTransform="matrix(28.914967,50.082191,50.082191,-28.914967,82.547844,120.10219)"
       spreadMethod="pad"
       id="linearGradient7559">
      <stop
         style="stop-opacity:1;stop-color:#113e74"
         offset="0"
         id="stop7553" />
      <stop
         style="stop-opacity:1;stop-color:#2270c1"
         offset="0.89544754"
         id="stop7555" />
      <stop
         style="stop-opacity:1;stop-color:#2270c1"
         offset="1"
         id="stop7557" />
    </linearGradient>
    <linearGradient
       x1="0"
       y1="0"
       x2="1"
       y2="0"
       gradientUnits="userSpaceOnUse"
       gradientTransform="matrix(50.194958,86.940216,86.940216,-50.194958,72.691658,101.22494)"
       spreadMethod="pad"
       id="linearGradient7581">
      <stop
         style="stop-opacity:1;stop-color:#113e74"
         offset="0"
         id="stop7575" />
      <stop
         style="stop-opacity:1;stop-color:#2270c1"
         offset="0.89544754"
         id="stop7577" />
      <stop
         style="stop-opacity:1;stop-color:#2270c1"
         offset="1"
         id="stop7579" />
    </linearGradient>
    <linearGradient
       x1="0"
       y1="0"
       x2="1"
       y2="0"
       gradientUnits="userSpaceOnUse"
       gradientTransform="matrix(13.393727,13.393727,13.393727,-13.393727,90.147667,139.11928)"
       spreadMethod="pad"
       id="linearGradient7603">
      <stop
         style="stop-opacity:1;stop-color:#31ad3d"
         offset="0"
         id="stop7597" />
      <stop
         style="stop-opacity:1;stop-color:#31ad3d"
         offset="0.30840837"
         id="stop7599" />
      <stop
         style="stop-opacity:1;stop-color:#80cc28"
         offset="1"
         id="stop7601" />
    </linearGradient>
    <clipPath
       clipPathUnits="userSpaceOnUse"
       id="clipPath7613">
      <path
         d="M 0,259.395 H 435.276 V 0 H 0 Z"
         id="path7611" />
    </clipPath>
    <linearGradient
       x1="0"
       y1="0"
       x2="1"
       y2="0"
       gradientUnits="userSpaceOnUse"
       gradientTransform="matrix(37.348831,0,0,-37.348831,310.70911,145.15056)"
       spreadMethod="pad"
       id="linearGradient7645">
      <stop
         style="stop-opacity:1;stop-color:#113e74"
         offset="0"
         id="stop7639" />
      <stop
         style="stop-opacity:1;stop-color:#2270c1"
         offset="0.89544754"
         id="stop7641" />
      <stop
         style="stop-opacity:1;stop-color:#2270c1"
         offset="1"
         id="stop7643" />
    </linearGradient>
    <linearGradient
       x1="0"
       y1="0"
       x2="1"
       y2="0"
       gradientUnits="userSpaceOnUse"
       gradientTransform="matrix(33.863804,0,0,-33.863804,353.38391,138.47607)"
       spreadMethod="pad"
       id="linearGradient7667">
      <stop
         style="stop-opacity:1;stop-color:#113e74"
         offset="0"
         id="stop7661" />
      <stop
         style="stop-opacity:1;stop-color:#2270c1"
         offset="0.89544754"
         id="stop7663" />
      <stop
         style="stop-opacity:1;stop-color:#2270c1"
         offset="1"
         id="stop7665" />
    </linearGradient>
  </defs>
  <g
     inkscape:label="Camada 1"
     inkscape:groupmode="layer"
     id="layer1"
     transform="translate(-90.376068,-115.2029)">
    <g
       id="g12682"
       transform="matrix(1.0149821,0,0,1.0149821,34.401048,-1.4886269)"
       style="fill:#ffffff">
      <g
         id="g7607"
         transform="matrix(0.71398344,0,0,-0.71398344,-81.903416,236.02209)"
         style="fill:#ffffff">
        <g
           id="g7609"
           clip-path="url(#clipPath7613)"
           style="fill:#ffffff">
          <g
             id="g7615"
             transform="translate(191.9543,168.7574)"
             style="fill:#ffffff">
            <path
               d="M 0,0 C 0.306,0.042 0.712,0.075 1.216,0.098 1.72,0.12 2.147,0.131 2.499,0.131 2.849,0.131 3.266,0.12 3.748,0.098 4.23,0.075 4.625,0.042 4.932,0 L 27.551,-39.586 V 0 c 0.306,0.042 0.647,0.075 1.02,0.098 0.372,0.022 0.757,0.033 1.151,0.033 0.351,0 0.733,-0.011 1.151,-0.033 C 31.289,0.075 31.651,0.042 31.958,0 v -47.279 c -0.264,-0.043 -0.647,-0.076 -1.151,-0.099 -0.504,-0.021 -0.954,-0.032 -1.349,-0.032 -0.35,0 -0.767,0.011 -1.249,0.032 -0.482,0.023 -0.877,0.056 -1.183,0.099 L 4.406,-8.022 v -39.257 c -0.307,-0.043 -0.648,-0.076 -1.02,-0.099 -0.372,-0.021 -0.756,-0.032 -1.15,-0.032 -0.439,0 -0.855,0.011 -1.25,0.032 -0.394,0.023 -0.723,0.056 -0.986,0.099 z"
               style="fill:#ffffff;fill-opacity:1;fill-rule:nonzero;stroke:none"
               id="path7617" />
          </g>
          <g
             id="g7619"
             transform="translate(254.09,141.2046)"
             style="fill:#ffffff">
            <path
               d="m 0,0 c 0,1.358 -0.175,2.696 -0.526,4.012 -0.351,1.314 -0.898,2.466 -1.644,3.452 -0.746,0.986 -1.71,1.785 -2.893,2.4 -1.184,0.614 -2.609,0.92 -4.275,0.92 -3.068,0 -5.456,-0.943 -7.166,-2.827 C -18.215,6.071 -19.245,3.42 -19.595,0 Z m -19.727,-3.616 c 0,-4.472 1.03,-7.76 3.09,-9.863 2.061,-2.105 5.151,-3.157 9.272,-3.157 1.666,0 3.211,0.142 4.636,0.428 1.424,0.284 2.817,0.668 4.176,1.15 0.219,-0.482 0.394,-1.075 0.526,-1.775 0.131,-0.702 0.218,-1.338 0.263,-1.907 -1.272,-0.571 -2.762,-1.008 -4.472,-1.316 -1.71,-0.305 -3.574,-0.46 -5.589,-0.46 -2.893,0 -5.381,0.428 -7.463,1.283 -2.083,0.855 -3.793,2.048 -5.129,3.584 -1.338,1.534 -2.324,3.363 -2.958,5.49 -0.637,2.126 -0.954,4.461 -0.954,7.003 0,2.455 0.296,4.757 0.887,6.904 0.592,2.148 1.49,4.033 2.696,5.655 1.206,1.622 2.751,2.894 4.636,3.815 1.884,0.92 4.143,1.38 6.772,1.38 2.193,0 4.143,-0.373 5.853,-1.118 1.71,-0.746 3.145,-1.787 4.307,-3.123 C 1.983,9.02 2.86,7.419 3.452,5.557 4.044,3.693 4.339,1.666 4.339,-0.525 4.339,-0.92 4.328,-1.425 4.308,-2.038 4.285,-2.652 4.252,-3.179 4.209,-3.616 Z"
               style="fill:#ffffff;fill-opacity:1;fill-rule:nonzero;stroke:none"
               id="path7621" />
          </g>
          <g
             id="g7623"
             transform="translate(260.7336,155.0132)"
             style="fill:#ffffff">
            <path
               d="M 0,0 C 0.263,0.044 0.602,0.077 1.019,0.099 1.436,0.12 1.862,0.132 2.301,0.132 2.652,0.132 3.079,0.12 3.584,0.099 4.087,0.077 4.471,0.044 4.734,0 L 12.165,-28.537 20.45,0 c 0.351,0.044 0.734,0.077 1.151,0.099 0.416,0.021 0.865,0.033 1.348,0.033 h 1.085 c 0.371,0 0.733,-0.044 1.085,-0.132 L 33.404,-28.144 40.834,0 c 0.264,0.044 0.581,0.077 0.954,0.099 0.372,0.021 0.733,0.033 1.085,0.033 0.35,0 0.745,-0.012 1.184,-0.033 C 44.494,0.077 44.845,0.044 45.108,0 l -9.665,-33.535 c -0.79,-0.131 -1.557,-0.197 -2.302,-0.197 -0.833,0 -1.601,0.066 -2.302,0.197 l -8.087,27.749 -8.483,-27.749 c -0.789,-0.131 -1.557,-0.197 -2.301,-0.197 -0.834,0 -1.601,0.066 -2.301,0.197 z"
               style="fill:#ffffff;fill-opacity:1;fill-rule:nonzero;stroke:none"
               id="path7625" />
          </g>
        </g>
      </g>
      <g
         id="g7627"
         transform="matrix(0.71398344,0,0,-0.71398344,-81.903416,236.02209)"
         style="fill:#ffffff">
        <g
           id="g7629"
           style="fill:#ffffff">
          <g
             id="g7635"
             style="fill:#ffffff">
            <g
               id="g7637"
               style="fill:#ffffff">
              <path
                 d="m 323.663,167.704 c -2.806,-1.227 -5.162,-2.936 -7.069,-5.128 v 0 c -1.907,-2.192 -3.365,-4.791 -4.372,-7.792 v 0 c -1.01,-3.004 -1.513,-6.258 -1.513,-9.765 v 0 c 0,-3.508 0.481,-6.752 1.446,-9.732 v 0 c 0.964,-2.982 2.421,-5.547 4.373,-7.694 v 0 c 1.95,-2.148 4.372,-3.825 7.266,-5.03 v 0 c 2.893,-1.205 6.268,-1.807 10.127,-1.807 v 0 c 1.796,0 3.955,0.153 6.476,0.46 v 0 c 2.521,0.305 5.074,0.942 7.661,1.907 v 0 23.934 c -1.009,0.175 -2.039,0.307 -3.091,0.394 v 0 c -1.052,0.088 -1.951,0.133 -2.696,0.133 v 0 c -0.789,0 -1.643,-0.045 -2.564,-0.133 v 0 c -0.921,-0.087 -1.972,-0.219 -3.156,-0.394 v 0 -15.781 c -0.658,-0.132 -1.404,-0.197 -2.236,-0.197 v 0 c -3.726,0 -6.532,1.15 -8.416,3.452 v 0 c -1.886,2.3 -2.828,5.797 -2.828,10.488 v 0 c 0,4.735 0.964,8.295 2.894,10.685 v 0 c 1.927,2.389 4.668,3.583 8.219,3.583 v 0 c 0.744,0 1.446,-0.033 2.104,-0.098 v 0 c 0.657,-0.065 1.315,-0.164 1.972,-0.296 v 0 c 0.658,-0.132 1.349,-0.307 2.071,-0.525 v 0 c 0.724,-0.221 1.524,-0.484 2.401,-0.79 v 0 c 0.613,1.183 1.205,2.631 1.775,4.34 v 0 c 0.569,1.709 0.898,3.462 0.987,5.261 v 0 c -2.281,0.964 -4.373,1.599 -6.279,1.907 v 0 c -1.909,0.306 -3.914,0.46 -6.018,0.46 v 0 c -3.55,0 -6.729,-0.615 -9.534,-1.842"
                 style="fill:#ffffff;stroke:none"
                 id="path7647" />
            </g>
          </g>
        </g>
      </g>
      <g
         id="g7649"
         transform="matrix(0.71398344,0,0,-0.71398344,-81.903416,236.02209)"
         style="fill:#ffffff">
        <g
           id="g7651"
           style="fill:#ffffff">
          <g
             id="g7657"
             style="fill:#ffffff">
            <g
               id="g7659"
               style="fill:#ffffff">
              <path
                 d="m 362.983,154.981 c -2.104,-0.854 -3.868,-2.071 -5.292,-3.65 v 0 c -1.425,-1.577 -2.499,-3.474 -3.222,-5.688 v 0 c -0.724,-2.214 -1.085,-4.658 -1.085,-7.331 v 0 c 0,-2.631 0.361,-5.03 1.085,-7.201 v 0 c 0.723,-2.169 1.797,-4.034 3.222,-5.589 v 0 c 1.424,-1.557 3.188,-2.751 5.292,-3.584 v 0 c 2.105,-0.832 4.537,-1.249 7.3,-1.249 v 0 c 2.805,0 5.26,0.417 7.364,1.249 v 0 c 2.105,0.833 3.868,2.027 5.294,3.584 v 0 c 1.424,1.555 2.498,3.42 3.221,5.589 v 0 c 0.724,2.171 1.085,4.57 1.085,7.201 v 0 c 0,2.673 -0.361,5.117 -1.085,7.331 v 0 c -0.723,2.214 -1.797,4.111 -3.221,5.688 v 0 c -1.426,1.579 -3.189,2.796 -5.294,3.65 v 0 c -2.104,0.855 -4.559,1.282 -7.364,1.282 v 0 c -2.763,0 -5.195,-0.427 -7.3,-1.282 m 3.026,-23.048 c -0.921,1.49 -1.381,3.616 -1.381,6.379 v 0 c 0,2.804 0.46,4.954 1.381,6.444 v 0 c 0.92,1.489 2.344,2.235 4.274,2.235 v 0 c 1.927,0 3.364,-0.746 4.307,-2.235 v 0 c 0.942,-1.49 1.413,-3.64 1.413,-6.444 v 0 c 0,-2.763 -0.471,-4.889 -1.413,-6.379 v 0 c -0.943,-1.49 -2.38,-2.235 -4.307,-2.235 v 0 c -1.93,0 -3.354,0.745 -4.274,2.235"
                 style="fill:#ffffff;stroke:none"
                 id="path7669" />
            </g>
          </g>
        </g>
      </g>
    </g>
  </g>
</svg>
